<svg width="50" height="50" viewBox="0 0 50 50" fill="none" xmlns="http://www.w3.org/2000/svg">
<path d="M6 5C5.44774 5.00006 5.00006 5.44774 5 6V44C5.00006 44.5523 5.44774 44.9999 6 45H44C44.5523 44.9999 44.9999 44.5523 45 44V6C44.9999 5.44774 44.5523 5.00006 44 5H6ZM7 7H43V43H40.3379C40.8514 42.169 41.3646 40.7332 41.7207 38.2402C42.3007 34.1602 41.5293 25.6406 40.5293 24.6406C39.8993 24.0106 38.0808 23.7008 36.8008 23.5508C36.9908 25.6408 37 27.1199 37 27.1699C37 33.2358 36.6256 40.981 36.5273 43H34.5254C34.6001 41.5312 35 33.5042 35 27.1699C35 22.2099 33.7101 14.1206 30.8301 12.3105C28.8801 11.0905 24.5697 10.6303 21.4297 11.3203C17.2397 12.2403 16.0994 13.6495 14.3594 15.6895C13.9367 16.1926 13.5299 16.9777 13.1523 17.873C12.8101 18.018 12.4722 18.1777 12.1484 18.373C10.3449 19.4611 9.00109 21.4997 8.99999 24.4844C8.9994 25.964 9.52836 27.1952 10.3183 28.0898C10.5303 28.3299 10.7606 28.5434 11 28.7402V36.0801C11 39.429 11.4635 41.7702 11.7715 43H6.99999L7 7ZM19.8301 19.0098C21.6041 19.0339 23.08 19.1636 24.0449 19.6328C24.6882 19.9456 25.1336 20.3575 25.4766 21.086C25.8195 21.8144 26.0348 22.897 25.9961 24.459C25.9678 25.5942 25.5622 26.3494 24.9082 26.9844C24.2542 27.6193 23.3149 28.0956 22.3105 28.4141C21.3062 28.7325 20.2475 28.8953 19.4004 28.961C18.9768 28.9938 18.6054 29.0024 18.3262 28.9981C18.0469 28.9938 17.8156 28.9609 17.8691 28.9727C17.4294 28.8758 16.9621 28.8529 16.2422 28.7305C15.5223 28.6081 14.6572 28.4142 13.8535 28.0957C13.0498 27.7772 12.3195 27.3373 11.8164 26.7676C11.3133 26.1979 10.9996 25.5162 11 24.4844C11.0009 22.047 11.8839 20.8689 13.1816 20.086C14.4794 19.303 16.3061 19.0297 17.9648 19.0117C18.6147 19.0047 19.2387 19.0017 19.8301 19.0098Z" fill="#1E1E22"/>
</svg>
