<svg width="21" height="28" viewBox="0 0 21 28" fill="none" xmlns="http://www.w3.org/2000/svg">
<path d="M0.751953 5.23865C0.751953 2.34542 3.05623 0 5.89873 0H14.7299C17.5724 0 19.8767 2.34542 19.8767 5.23865C19.8767 7.07066 18.9528 8.68306 17.5533 9.61937C18.9528 10.5557 19.8767 12.1681 19.8767 14.0001C19.8767 16.8934 17.5724 19.2388 14.7299 19.2388H14.6181C13.2856 19.2388 12.0713 18.7233 11.1573 17.8776V22.7044C11.1573 25.6362 8.79273 28 5.92645 28C3.09106 28 0.751953 25.6617 0.751953 22.7613C0.751953 20.9294 1.67578 19.3171 3.07511 18.3807C1.67578 17.4444 0.751953 15.832 0.751953 14.0001C0.751953 12.1681 1.67586 10.5557 3.07529 9.61937C1.67586 8.68306 0.751953 7.07066 0.751953 5.23865ZM9.47137 10.4774H5.89873C3.98731 10.4774 2.43782 12.0546 2.43782 14.0001C2.43782 15.9381 3.97536 17.5106 5.87659 17.5227C5.88395 17.5227 5.89131 17.5227 5.89873 17.5227H9.47137V10.4774ZM11.1573 14.0001C11.1573 15.9456 12.7067 17.5228 14.6181 17.5228H14.7299C16.6413 17.5228 18.1908 15.9456 18.1908 14.0001C18.1908 12.0546 16.6413 10.4774 14.7299 10.4774H14.6181C12.7067 10.4774 11.1573 12.0546 11.1573 14.0001ZM5.89873 19.2388C5.89131 19.2388 5.88395 19.2387 5.87659 19.2387C3.97536 19.2508 2.43782 20.8233 2.43782 22.7613C2.43782 24.6997 4.00801 26.284 5.92645 26.284C7.87581 26.284 9.47137 24.6742 9.47137 22.7044V19.2388H5.89873ZM5.89873 1.71597C3.98731 1.71597 2.43782 3.29313 2.43782 5.23865C2.43782 7.18419 3.98731 8.76132 5.89873 8.76132H9.47137V1.71597H5.89873ZM11.1573 8.76132H14.7299C16.6413 8.76132 18.1908 7.18419 18.1908 5.23865C18.1908 3.29313 16.6413 1.71597 14.7299 1.71597H11.1573V8.76132Z" fill="url(#paint0_linear_231_11)"/>
<defs>
<linearGradient id="paint0_linear_231_11" x1="19.8767" y1="28" x2="-4.79652" y2="21.6878" gradientUnits="userSpaceOnUse">
<stop offset="0.73" stop-color="#323235"/>
<stop offset="1" stop-color="#5E5E63"/>
</linearGradient>
</defs>
</svg>
