<svg width="28" height="28" viewBox="0 0 28 28" fill="none" xmlns="http://www.w3.org/2000/svg">
<path d="M9.36532 22.412C9.36532 22.5248 9.23548 22.615 9.07177 22.615C8.88548 22.6319 8.75565 22.5417 8.75565 22.412C8.75565 22.2992 8.88548 22.2089 9.04919 22.2089C9.21855 22.192 9.36532 22.2823 9.36532 22.412ZM7.60968 22.1582C7.57016 22.271 7.68306 22.4007 7.85242 22.4345C7.99919 22.4909 8.16855 22.4345 8.20242 22.3217C8.23629 22.2089 8.12903 22.0792 7.95968 22.0285C7.8129 21.989 7.64919 22.0454 7.60968 22.1582ZM10.1048 22.0623C9.94113 22.1018 9.82823 22.2089 9.84516 22.3386C9.8621 22.4514 10.0089 22.5248 10.1782 22.4853C10.3419 22.4458 10.4548 22.3386 10.4379 22.2259C10.421 22.1187 10.2685 22.0454 10.1048 22.0623ZM13.8194 0.451172C5.98952 0.451172 0 6.38972 0 14.2119C0 20.4663 3.94032 25.8183 9.56855 27.702C10.2911 27.8317 10.5452 27.3861 10.5452 27.0196C10.5452 26.6699 10.5282 24.7411 10.5282 23.5568C10.5282 23.5568 6.57661 24.4028 5.74677 21.8762C5.74677 21.8762 5.10323 20.2351 4.17742 19.8121C4.17742 19.8121 2.88468 18.9267 4.26774 18.9436C4.26774 18.9436 5.67339 19.0564 6.44677 20.3986C7.68306 22.5755 9.75484 21.9495 10.5621 21.5773C10.6919 20.675 11.0589 20.0489 11.4653 19.6767C8.30968 19.3271 5.12581 18.8703 5.12581 13.4449C5.12581 11.894 5.55484 11.1157 6.45806 10.1232C6.31129 9.75659 5.83145 8.24517 6.60484 6.29385C7.78468 5.92727 10.5 7.81655 10.5 7.81655C11.629 7.50073 12.8427 7.33718 14.0452 7.33718C15.2476 7.33718 16.4613 7.50073 17.5903 7.81655C17.5903 7.81655 20.3056 5.92163 21.4855 6.29385C22.2589 8.25081 21.779 9.75659 21.6323 10.1232C22.5355 11.1214 23.0887 11.8997 23.0887 13.4449C23.0887 18.8872 19.7637 19.3214 16.6081 19.6767C17.1274 20.1223 17.5677 20.9682 17.5677 22.2935C17.5677 24.1941 17.5508 26.5458 17.5508 27.0083C17.5508 27.3749 17.8105 27.8204 18.5274 27.6907C24.1726 25.8183 28 20.4663 28 14.2119C28 6.38972 21.6492 0.451172 13.8194 0.451172ZM5.4871 19.9023C5.41371 19.9587 5.43065 20.0884 5.52661 20.1956C5.61694 20.2858 5.74677 20.3253 5.82016 20.252C5.89355 20.1956 5.87661 20.0659 5.78065 19.9587C5.69032 19.8685 5.56048 19.829 5.4871 19.9023ZM4.87742 19.4455C4.8379 19.5188 4.89435 19.6091 5.00726 19.6655C5.09758 19.7219 5.21048 19.7049 5.25 19.626C5.28952 19.5527 5.23306 19.4624 5.12016 19.406C5.00726 19.3722 4.91694 19.3891 4.87742 19.4455ZM6.70645 21.4532C6.61613 21.5265 6.65 21.6957 6.77984 21.8029C6.90968 21.9326 7.07339 21.9495 7.14677 21.8593C7.22016 21.786 7.18629 21.6168 7.07339 21.5096C6.94919 21.3799 6.77984 21.363 6.70645 21.4532ZM6.0629 20.6242C5.97258 20.6806 5.97258 20.8272 6.0629 20.9569C6.15323 21.0866 6.30564 21.143 6.37903 21.0866C6.46935 21.0133 6.46935 20.8667 6.37903 20.737C6.3 20.6073 6.15323 20.5509 6.0629 20.6242Z" fill="#5E5E63"/>
</svg>
