<svg width="41" height="44" viewBox="0 0 41 44" fill="none" xmlns="http://www.w3.org/2000/svg">
<path fill-rule="evenodd" clip-rule="evenodd" d="M6.05589 44H15.6962V30.9604L6.05589 31.6584V44ZM17.9494 9.99505L9.22023 14.9455L16.0399 13.9059L17.9494 9.99505ZM0.594677 40.9158L0.927478 41.4455L1.32575 41.9406L1.77312 42.3812L2.25868 42.7921L2.80426 43.1584L3.34983 43.4356L3.99907 43.6832L4.29368 43.7624V30.2426L8.07452 29.9406V16.7426L5.29208 17.1733L4.59375 17.5693L3.6499 16.1931L19.788 6.9802V6.94555L37.7047 16.0149L36.7718 17.3762L35.5824 16.7772L31.2997 16.5198V29.9951L35.0096 30.1881V44L35.6424 43.9752L36.3353 43.8564L36.99 43.6832L37.6174 43.4356L38.163 43.1584L38.7086 42.7921L39.216 42.3812L39.647 41.9406L40.0398 41.4455L40.3671 40.9158L40.6345 40.3416L40.8145 39.7525L40.9509 39.1436L41 38.4951V5.50495L40.9509 4.86139L40.8145 4.25743L40.6345 3.65347L40.3726 3.08911L40.0452 2.55446L39.6524 2.05941L39.2214 1.61881L38.7359 1.20297L38.1903 0.851486L37.6447 0.564356L37.0173 0.321783L36.3626 0.138615L35.6697 0.0297037L34.9768 0H6.06134L5.3521 0.0297037L4.68104 0.138615L4.0318 0.321783L3.38257 0.564356L2.83699 0.851486L2.29142 1.20297L1.80586 1.61881L1.35848 2.05941L0.960213 2.55446L0.594677 3.08911L0.327345 3.65347L0.136394 4.25743L0.0327345 4.86139L0 5.50495V38.4951L0.0545575 39.1436L0.158217 39.7525L0.327345 40.3663L0.594677 40.9158ZM20.2354 9.05446L17.8349 14.0644L31.938 14.9505L20.2354 9.05446ZM11.5771 22.104L11.6044 23.1386V23.5347L13.9831 23.4554V19.2871L11.5607 19.4257L11.5771 22.104ZM15.6962 15.6139L9.864 16.4852V29.8069L15.6962 29.3119V15.6139ZM15.0251 21.4851L14.9379 22.4109L14.7305 23.2525L14.4687 23.9951L14.1031 24.5842L13.6939 25.0446L13.2084 25.3119L12.6628 25.401L12.1172 25.2624L11.648 24.9356L11.2498 24.4406L10.9442 23.802L10.7751 23.0396L10.6878 22.1881V21.2673L10.7915 20.3416L10.9933 19.5248L11.2989 18.7871L11.6589 18.1931L12.0736 17.7327L12.521 17.4554L12.9792 17.3614L13.4593 17.4802L13.9013 17.802L14.2941 18.297L14.6323 18.9505L14.8833 19.698L15.0251 20.5644V21.4851ZM5.12841 43.9307L5.34664 43.9752L6.05589 44L5.45575 43.9752L5.12841 43.9307ZM33.2474 31.7178L17.4584 30.9604V43.9802H33.2801L33.2474 31.7178ZM26.0349 19.3416L22.2158 19.1683V23.5347L26.1003 23.6386L26.0349 19.3416ZM17.4584 29.3069L29.3847 29.901V16.4059L17.4584 15.6881V29.3069ZM20.1863 20.7228L20.3391 20.0941L20.5846 19.5099L20.9065 18.9505L21.2774 18.4852L21.7685 18.0891L22.2649 17.7723L22.8487 17.5099L23.4488 17.3515L24.0872 17.3069L24.7309 17.3515L25.3365 17.5099L25.8821 17.7723L26.4277 18.0891L26.875 18.5L27.2624 18.9653L27.5952 19.5248L27.8244 20.0941L27.9717 20.7228L28.0262 21.3812L27.9935 22.0495L27.8244 22.6733L27.5734 23.2673L27.2788 23.7921L26.8914 24.2871L26.444 24.6881L25.8985 25.0347L25.3529 25.2723L24.7473 25.4257L24.1035 25.4802L23.4597 25.4158L22.8596 25.2624L22.2649 25.0198L21.7685 24.6733L21.2774 24.2772L20.8901 23.7822L20.5682 23.2574L20.3227 22.6634L20.1863 22.0495V21.3812V20.7228Z" fill="#15ABFF"/>
</svg>
