<svg width="28" height="28" viewBox="0 0 28 28" fill="none" xmlns="http://www.w3.org/2000/svg">
<g clip-path="url(#clip0_209_19)">
<path d="M17.4543 4.47997C17.1918 4.47341 16.9621 4.57404 16.844 4.86497C16.6427 5.35279 17.1437 5.82966 17.323 6.07904C17.4477 6.25185 17.6096 6.44654 17.6993 6.64122C17.7584 6.77029 17.7671 6.89935 17.8174 7.03497C17.9421 7.36966 18.1412 7.75029 18.3009 8.06091C18.3818 8.21841 18.4715 8.38247 18.5743 8.52247C18.6377 8.60779 18.7449 8.64716 18.7624 8.77841C18.6574 8.92716 18.6509 9.15685 18.5918 9.34497C18.3249 10.1872 18.4255 11.235 18.8127 11.8562C18.933 12.0487 19.2152 12.4578 19.6002 12.3025C19.9371 12.1647 19.8627 11.7381 19.959 11.3597C19.9809 11.2765 19.9677 11.2131 20.0115 11.1562V11.1737C20.1121 11.3793 20.2149 11.585 20.3177 11.7884C20.5474 12.1559 20.9521 12.5387 21.2934 12.799C21.4705 12.9325 21.6105 13.1643 21.8402 13.2431V13.2256H21.8227C21.779 13.1556 21.709 13.1272 21.6521 13.0725C21.5187 12.9412 21.3699 12.7772 21.2605 12.6262C20.9477 12.204 20.6721 11.7403 20.4227 11.259C20.3024 11.0293 20.1974 10.7756 20.0968 10.5415C20.0574 10.4497 20.0574 10.314 19.9765 10.2659C19.8649 10.4387 19.703 10.5765 19.6177 10.78C19.4821 11.1037 19.4624 11.4997 19.4121 11.9087C19.3815 11.9197 19.3946 11.9109 19.3793 11.9262C19.1409 11.8672 19.0555 11.6222 18.968 11.4122C18.7449 10.8806 18.7012 10.0231 18.9002 9.41279C18.9505 9.2531 19.1802 8.75435 19.0884 8.60779C19.0446 8.46122 18.8959 8.3781 18.8149 8.26654C18.7121 8.12872 18.6115 7.94716 18.5415 7.78747C18.3577 7.37185 18.1849 6.8906 17.9902 6.4706C17.8984 6.26935 17.743 6.0681 17.614 5.88872C17.4718 5.69185 17.3143 5.54747 17.2027 5.30685C17.1655 5.22372 17.1109 5.0881 17.1699 5.0006C17.1874 4.94154 17.2137 4.91747 17.2727 4.89779C17.3712 4.82122 17.6468 4.92185 17.7518 4.9656C18.0252 5.07935 18.2549 5.18872 18.4868 5.34185C18.5984 5.41622 18.7099 5.55841 18.8455 5.59997H18.9987C19.2415 5.65466 19.5105 5.61529 19.7337 5.68529C20.1318 5.8056 20.4884 5.99372 20.8099 6.19716C21.7965 6.81841 22.6037 7.70435 23.1527 8.76091C23.2424 8.93154 23.2818 9.0956 23.3605 9.27497C23.5159 9.6381 23.7149 10.0143 23.8724 10.3687C24.0277 10.7253 24.1809 11.0818 24.4018 11.3772C24.5177 11.5325 24.9684 11.6178 25.1718 11.7031C25.314 11.7643 25.5502 11.8278 25.6837 11.9087C25.944 12.064 26.1934 12.25 26.4362 12.4228C26.5587 12.5081 26.9305 12.694 26.9502 12.8493C26.3487 12.834 25.8893 12.8887 25.4977 13.055C25.3862 13.1031 25.2068 13.1031 25.1893 13.2431C25.2484 13.3065 25.2593 13.4028 25.3074 13.4815C25.4015 13.6325 25.559 13.8359 25.7012 13.9431C25.8565 14.059 26.014 14.1837 26.1802 14.2865C26.4734 14.4637 26.8015 14.5665 27.0859 14.7459C27.2521 14.8531 27.4205 14.9865 27.5824 15.1047C27.6634 15.1659 27.7159 15.2578 27.8209 15.295V15.2775C27.7662 15.2075 27.753 15.1112 27.7027 15.039L27.4774 14.8137C27.2609 14.5272 26.9852 14.2734 26.6921 14.0634C26.458 13.895 25.9352 13.6675 25.839 13.3962L25.8215 13.3787C25.9855 13.3612 26.1802 13.3 26.3334 13.2584C26.5915 13.1906 26.819 13.2081 27.0837 13.1403C27.204 13.1053 27.3243 13.0703 27.4446 13.0375V12.9675C27.3112 12.8318 27.2149 12.6481 27.0684 12.5234C26.6855 12.1975 26.2677 11.8715 25.8368 11.6003C25.5984 11.4493 25.303 11.3509 25.0515 11.224C24.9662 11.1803 24.8174 11.1584 24.7605 11.0862C24.6271 10.9178 24.5549 10.7034 24.4521 10.5065C24.2377 10.0931 24.0277 9.64247 23.8374 9.20716C23.7084 8.91185 23.623 8.61872 23.4612 8.35185C22.6846 7.07654 21.849 6.30435 20.554 5.54747C20.2784 5.3856 19.948 5.32435 19.598 5.24122C19.4077 5.2281 19.2218 5.21716 19.0315 5.20622C18.9177 5.1581 18.7974 5.0181 18.6902 4.9481C18.4212 4.77966 17.8918 4.48654 17.4543 4.47997ZM19.3071 6.33497C19.1824 6.33279 19.0927 6.35029 18.9987 6.36997V6.38747H19.0162C19.0752 6.50997 19.1824 6.58872 19.2568 6.69372C19.3137 6.81404 19.3684 6.93435 19.4252 7.05466L19.4427 7.03716C19.5477 6.96279 19.598 6.84247 19.598 6.66091C19.5543 6.61716 19.5477 6.56029 19.5127 6.50779C19.4624 6.4356 19.3684 6.39622 19.3071 6.33497ZM1.04586 13.4378C0.877422 13.4443 0.693672 13.4772 0.49461 13.5406C0.16211 13.6412 -0.00195312 13.8403 -0.00195312 14.245V18.48H1.12023V14.3478L2.67555 17.8806C2.86805 18.3203 3.13055 18.4778 3.64461 18.4778C4.16086 18.4778 4.41242 18.3203 4.60492 17.8806L6.16023 14.4375V18.48H7.28023V14.245C7.28023 13.8403 7.11836 13.6412 6.78367 13.5406C5.98742 13.289 5.45148 13.5056 5.21086 14.0503L3.61398 17.6422L2.06961 14.0503C1.89461 13.6412 1.54461 13.4181 1.04586 13.4378ZM14.698 13.44C14.2562 13.44 12.8802 13.4925 12.8802 14.56V15.2512C12.8802 15.7412 13.3112 16.1415 14.2452 16.24C14.3502 16.2465 14.4552 16.2553 14.5602 16.2553C14.5602 16.2553 15.6496 16.2334 15.6802 16.24C16.3102 16.24 16.2402 16.73 16.2402 16.8V17.36C16.2402 17.4365 16.2227 17.92 15.6737 17.92H12.8802V18.48H15.6846C16.0521 18.48 16.4087 18.4034 16.693 18.27C17.1655 18.0534 17.3602 17.7603 17.3602 17.3753V16.5747C17.3602 15.715 16.2927 15.68 15.6802 15.68H14.5602C14.1205 15.68 14.0527 15.4131 14.0002 15.12V14.56C14.0527 14.3368 14.1512 14.035 14.5405 14H17.3602V13.44H14.698ZM19.0293 13.44C18.2024 13.5537 17.9115 13.965 17.9115 14.56V17.36C17.9115 17.9047 18.2155 18.2328 18.8412 18.4034C19.0512 18.4625 19.2415 18.4865 19.4209 18.4865L20.6677 18.48H21.4005L22.024 19.04H23.284L22.4177 18.259C22.8246 18.0906 22.9515 17.8325 22.9515 17.349V14.56C22.9515 13.965 22.5643 13.5537 21.7374 13.44H19.0293ZM23.5202 13.44V17.3359C23.5202 18.0118 23.903 18.3925 24.9159 18.469C25.0099 18.4734 25.1062 18.48 25.2002 18.48H28.0002V17.92H25.4124C24.8349 17.92 24.6402 17.6772 24.6402 17.3315V13.44H23.5202ZM19.6965 14H21.138C21.5187 14 21.7746 14.3062 21.8315 14.56C21.8315 14.56 21.8402 17.1675 21.8402 17.36C21.8402 17.5525 21.733 17.64 21.733 17.64L21.429 17.36H20.1602L20.7837 17.92H19.6965C19.3071 17.92 19.0884 17.6312 19.0315 17.36V14.6168C19.0315 14.3193 19.259 14 19.6965 14ZM7.84023 15.12C7.86211 15.1418 7.84023 17.5065 7.84023 17.5525C7.84898 18.0425 8.47023 18.4712 9.44367 18.48H11.2002V18.5172C11.2002 18.6222 11.2768 18.9722 10.6402 19.04C10.6337 19.04 7.8468 19.04 7.84023 19.04V19.6H10.7605C11.2549 19.5847 12.3268 19.4731 12.3202 18.6156C12.3202 18.6003 12.3246 15.12 12.3202 15.12H11.2002V17.92C11.1827 17.92 9.81336 17.9243 9.53773 17.92C8.99742 17.9112 8.95148 17.6028 8.96023 17.4847V15.12H7.84023Z" fill="url(#paint0_linear_209_19)"/>
</g>
<defs>
<linearGradient id="paint0_linear_209_19" x1="28.0002" y1="19.6" x2="2.01371" y2="1.57389" gradientUnits="userSpaceOnUse">
<stop offset="0.73" stop-color="#323235"/>
<stop offset="1" stop-color="#5E5E63"/>
</linearGradient>
<clipPath id="clip0_209_19">
<rect width="28" height="28" fill="white"/>
</clipPath>
</defs>
</svg>
