<svg width="28" height="28" viewBox="0 0 28 28" fill="none" xmlns="http://www.w3.org/2000/svg">
<path d="M3.5 25.375H5.25V28H3.5C1.56953 28 0 26.4305 0 24.5V3.5C0 1.56953 1.56953 0 3.5 0H12.5508C13.4805 0 14.3719 0.366406 15.0281 1.02266L19.9773 5.97187C20.6336 6.62812 21 7.51953 21 8.44922V15.75H18.375V8.75H14C13.032 8.75 12.25 7.96797 12.25 7V2.625H3.5C3.01875 2.625 2.625 3.01875 2.625 3.5V24.5C2.625 24.9813 3.01875 25.375 3.5 25.375ZM9.625 19.25H11.375C13.0648 19.25 14.4375 20.6227 14.4375 22.3125C14.4375 24.0023 13.0648 25.375 11.375 25.375H10.5V27.125C10.5 27.6063 10.1063 28 9.625 28C9.14375 28 8.75 27.6063 8.75 27.125V24.5V20.125C8.75 19.6437 9.14375 19.25 9.625 19.25ZM11.375 23.625C12.1023 23.625 12.6875 23.0398 12.6875 22.3125C12.6875 21.5852 12.1023 21 11.375 21H10.5V23.625H11.375ZM16.625 19.25H18.375C19.8242 19.25 21 20.4258 21 21.875V25.375C21 26.8242 19.8242 28 18.375 28H16.625C16.1437 28 15.75 27.6063 15.75 27.125V20.125C15.75 19.6437 16.1437 19.25 16.625 19.25ZM18.375 26.25C18.8563 26.25 19.25 25.8563 19.25 25.375V21.875C19.25 21.3937 18.8563 21 18.375 21H17.5V26.25H18.375ZM22.75 20.125C22.75 19.6437 23.1437 19.25 23.625 19.25H26.25C26.7313 19.25 27.125 19.6437 27.125 20.125C27.125 20.6063 26.7313 21 26.25 21H24.5V22.75H26.25C26.7313 22.75 27.125 23.1437 27.125 23.625C27.125 24.1063 26.7313 24.5 26.25 24.5H24.5V27.125C24.5 27.6063 24.1063 28 23.625 28C23.1437 28 22.75 27.6063 22.75 27.125V23.625V20.125Z" fill="#5E5E63"/>
</svg>
