<svg width="28" height="28" viewBox="0 0 28 28" fill="none" xmlns="http://www.w3.org/2000/svg">
<path d="M22.8703 9.69061C22.575 9.59217 22.2797 9.49921 21.9844 9.41171C22.0336 9.20936 22.0773 9.00702 22.1211 8.80467C22.7938 5.5453 22.3508 2.92577 20.8578 2.06171C19.4195 1.23593 17.0734 2.09452 14.7 4.16171C14.4648 4.36405 14.2352 4.57733 14.0164 4.79061C13.8687 4.64842 13.7156 4.50624 13.5625 4.36952C11.0742 2.16014 8.58047 1.23046 7.0875 2.09999C5.65469 2.93124 5.22812 5.39764 5.82969 8.48202C5.88984 8.78827 5.95547 9.08905 6.03203 9.3953C5.68203 9.49374 5.3375 9.60311 5.01484 9.71796C2.09453 10.7297 0 12.3265 0 13.9781C0 15.6844 2.23125 17.3961 5.26641 18.4351C5.5125 18.5172 5.75859 18.5992 6.01016 18.6703C5.92813 18.9984 5.85703 19.3211 5.79141 19.6547C5.21719 22.6898 5.66563 25.0961 7.09844 25.9219C8.575 26.775 11.0578 25.9 13.475 23.7836C13.6664 23.614 13.8578 23.4391 14.0492 23.2531C14.2898 23.4883 14.5414 23.7125 14.793 23.9312C17.1336 25.9437 19.4469 26.7586 20.8742 25.9328C22.3508 25.0797 22.832 22.493 22.2086 19.343C22.1594 19.1023 22.1047 18.8562 22.0445 18.6047C22.2195 18.5555 22.3891 18.5008 22.5586 18.4461C25.7141 17.4015 28 15.7117 28 13.9781C28 12.3211 25.8453 10.7133 22.8703 9.69061ZM15.4711 5.04764C17.5055 3.27577 19.4031 2.58124 20.2672 3.07889C21.1914 3.60936 21.5469 5.75311 20.9672 8.56952C20.9289 8.75546 20.8906 8.93592 20.8414 9.11639C19.6273 8.84296 18.3969 8.64608 17.1609 8.53671C16.45 7.51952 15.6734 6.54608 14.8313 5.6328C15.0445 5.43046 15.2523 5.23905 15.4711 5.04764ZM9.14375 16.8164C9.42266 17.2922 9.70703 17.768 10.0078 18.2328C9.15469 18.1398 8.30703 18.0031 7.47031 17.8226C7.71094 17.0351 8.01172 16.2203 8.36172 15.389C8.61328 15.8703 8.87031 16.3461 9.14375 16.8164ZM7.48672 10.2375C8.27422 10.0625 9.11094 9.9203 9.98047 9.81092C9.69062 10.2648 9.40625 10.7297 9.13828 11.2C8.87031 11.6648 8.60781 12.1406 8.36172 12.6219C8.01719 11.807 7.72734 11.0086 7.48672 10.2375ZM8.98516 14.0055C9.34609 13.2508 9.73984 12.5125 10.1555 11.7851C10.5711 11.0578 11.0195 10.3523 11.4898 9.6578C12.3102 9.59764 13.1469 9.56483 14 9.56483C14.8531 9.56483 15.6953 9.59764 16.5102 9.6578C16.975 10.3469 17.418 11.0523 17.8391 11.7742C18.2602 12.4961 18.6539 13.2344 19.0258 13.9836C18.6594 14.7383 18.2656 15.482 17.8445 16.2148C17.4289 16.9422 16.9859 17.6476 16.5211 18.3476C15.7063 18.4078 14.8586 18.4351 14 18.4351C13.1414 18.4351 12.3102 18.4078 11.5062 18.3586C11.0305 17.6641 10.582 16.9531 10.1609 16.2258C9.73984 15.4984 9.35156 14.7601 8.98516 14.0055ZM18.8617 16.8055C19.1406 16.3242 19.4031 15.8375 19.6602 15.3453C20.0102 16.1383 20.3164 16.9422 20.5844 17.768C19.7367 17.9594 18.8781 18.107 18.0141 18.2055C18.3094 17.7461 18.5883 17.2758 18.8617 16.8055ZM19.6492 12.6219C19.3922 12.1406 19.1297 11.6594 18.8562 11.189C18.5883 10.7242 18.3094 10.2648 18.0195 9.81092C18.9 9.9203 19.7422 10.068 20.5297 10.2484C20.2781 11.0578 19.9828 11.8453 19.6492 12.6219ZM14.0109 6.46952C14.5852 7.09296 15.1266 7.74921 15.6297 8.42733C14.5469 8.37811 13.4586 8.37811 12.3758 8.42733C12.9117 7.72186 13.4641 7.06561 14.0109 6.46952ZM7.66719 3.11718C8.58594 2.58124 10.6258 3.34686 12.775 5.24999C12.9117 5.3703 13.0484 5.50155 13.1906 5.6328C12.343 6.54608 11.5609 7.51952 10.8445 8.53671C9.60859 8.64608 8.38359 8.83749 7.16953 9.10546C7.09844 8.82655 7.03828 8.54218 6.97812 8.2578C6.46406 5.61092 6.80312 3.61483 7.66719 3.11718ZM6.32734 17.5328C6.09766 17.4672 5.87344 17.3961 5.64922 17.3195C4.48438 16.9531 3.16094 16.3734 2.20391 15.6133C1.65156 15.2305 1.27969 14.6398 1.17578 13.9781C1.17578 12.9773 2.90391 11.6976 5.39766 10.8281C5.70937 10.7187 6.02656 10.6203 6.34375 10.5273C6.71563 11.714 7.16406 12.8789 7.68359 14.0055C7.15859 15.1484 6.70469 16.3297 6.32734 17.5328ZM12.7039 22.8922C11.8016 23.718 10.757 24.3742 9.61953 24.8226C9.0125 25.1125 8.3125 25.1398 7.68906 24.8937C6.81953 24.3906 6.45859 22.4601 6.95078 19.8625C7.01094 19.5562 7.07656 19.25 7.15313 18.9492C8.37813 19.2117 9.61406 19.3922 10.8664 19.4851C11.5883 20.5078 12.3812 21.4867 13.2289 22.4055C13.0539 22.575 12.8789 22.739 12.7039 22.8922ZM14.0437 21.5633C13.4859 20.9617 12.9281 20.2945 12.3867 19.5781C12.9117 19.6 13.4531 19.6109 14 19.6109C14.5633 19.6109 15.1156 19.6 15.6625 19.5726C15.1594 20.2672 14.618 20.9289 14.0437 21.5633ZM21.1914 23.2039C21.1422 23.8711 20.8141 24.4945 20.2891 24.9156C19.4195 25.4187 17.5656 24.7625 15.5641 23.0453C15.3344 22.8484 15.1047 22.6351 14.8695 22.4164C15.7062 21.4922 16.4773 20.5133 17.1773 19.4851C18.4297 19.3812 19.6766 19.1898 20.907 18.9109C20.9617 19.1351 21.0109 19.3594 21.0547 19.5781C21.3227 20.7594 21.3664 21.9898 21.1914 23.2039ZM22.1867 17.325C22.0336 17.3742 21.8805 17.4234 21.7219 17.4672C21.3391 16.275 20.8688 15.1101 20.3273 13.9781C20.8523 12.8625 21.2953 11.714 21.6672 10.5383C21.9516 10.6203 22.225 10.7078 22.4875 10.7953C25.0359 11.6703 26.8242 12.9719 26.8242 13.9672C26.8242 15.039 24.9156 16.4226 22.1867 17.325ZM14 16.5047C15.3836 16.5047 16.5047 15.3836 16.5047 14C16.5047 12.6164 15.3836 11.4953 14 11.4953C12.6164 11.4953 11.4953 12.6164 11.4953 14C11.4953 15.3836 12.6164 16.5047 14 16.5047Z" fill="url(#paint0_linear_209_17)"/>
<defs>
<linearGradient id="paint0_linear_209_17" x1="28" y1="26.252" x2="-4.52783" y2="12.3286" gradientUnits="userSpaceOnUse">
<stop offset="0.73" stop-color="#323235"/>
<stop offset="1" stop-color="#5E5E63"/>
</linearGradient>
</defs>
</svg>
