<svg width="28" height="28" viewBox="0 0 28 28" fill="none" xmlns="http://www.w3.org/2000/svg">
<path d="M2.27926 17.7983C2.53427 17.7983 2.78089 17.8355 3.01916 17.9099C3.25742 17.9843 3.46717 18.101 3.64833 18.26C3.82954 18.419 3.97383 18.622 4.08119 18.8689C4.1886 19.1158 4.24223 19.4118 4.24223 19.7569C4.24223 20.0207 4.19861 20.2575 4.11137 20.4673C4.02414 20.677 3.91341 20.8665 3.77918 21.0355C3.92684 21.1506 4.04089 21.2926 4.12144 21.4618C4.20198 21.6309 4.24223 21.8102 4.24223 21.9996V24.1842C4.24223 24.3534 4.21038 24.5124 4.14659 24.6612C4.08285 24.8101 3.99561 24.9403 3.88488 25.052C3.77415 25.1636 3.64495 25.2515 3.4973 25.3158C3.34964 25.3801 3.19191 25.4122 3.02413 25.4122H1.6047V19.5843H2.54091V20.7818C2.56103 20.775 2.61139 20.7496 2.69188 20.7057C2.77243 20.6617 2.85801 20.5991 2.94862 20.5179C3.03922 20.4367 3.12143 20.3318 3.19523 20.2033C3.26903 20.0748 3.30596 19.9259 3.30596 19.7568C3.30596 19.5741 3.2791 19.4185 3.22542 19.29C3.17174 19.1614 3.09788 19.0566 3.00395 18.9754C2.91003 18.8942 2.8009 18.835 2.67679 18.7977C2.55263 18.7606 2.42012 18.742 2.27915 18.742C2.01069 18.742 1.77243 18.8147 1.5644 18.9601C1.35631 19.1056 1.19859 19.2917 1.09123 19.5183C0.983876 19.745 0.935227 19.9936 0.945233 20.2642C0.955295 20.5349 1.04087 20.7953 1.20197 21.0457L0.416732 21.5632C0.235572 21.2859 0.114724 21 0.0543555 20.7057C-0.00601297 20.4114 -0.0161297 20.1256 0.0241713 19.8482C0.0644722 19.5708 0.148336 19.3069 0.275873 19.0566C0.403354 18.8063 0.566106 18.5881 0.764128 18.4021C0.962094 18.216 1.1903 18.0688 1.44864 17.9606C1.70703 17.8524 1.98399 17.7983 2.27926 17.7983ZM14.1557 11.5474C14.526 10.7035 14.7592 9.45983 14.888 8.83225C14.9057 8.74581 14.9817 8.68641 15.0691 8.69042C18.033 8.82824 19.175 7.30429 19.8996 5.52253C19.9301 5.44735 20.0041 5.40355 20.0841 5.41325C20.1641 5.42289 20.2256 5.48313 20.2377 5.56344C20.9821 10.4944 21.9621 11.6878 23.1454 12.8479C25.4786 15.1351 27.0339 11.9771 24.1279 11.3909C24.0406 11.3733 23.9804 11.2945 23.9861 11.2049C23.9918 11.1164 24.0595 11.0461 24.1471 11.0386C28.8087 10.6254 30.3821 17.9234 22.1755 15.7876C19.1463 14.9992 16.5609 13.6642 13.9966 13.6162C11.482 13.5692 8.24728 15.154 5.81269 15.7876C-2.39394 17.9234 -0.820546 10.6254 3.8411 11.0386C3.92889 11.0463 3.99644 11.1162 4.00208 11.2049C4.00783 11.2945 3.94774 11.3733 3.86034 11.3909C0.9543 11.9771 2.50962 15.1351 4.84282 12.8479C6.02614 11.6878 7.00608 10.4944 7.75051 5.56339C7.76262 5.48308 7.82415 5.42289 7.90414 5.41325C7.98414 5.40361 8.0581 5.44735 8.08862 5.52248C8.81326 7.30424 9.95523 8.82824 12.9191 8.69042C13.0066 8.68635 13.0826 8.74582 13.1003 8.8322C13.229 9.45983 13.4622 10.7035 13.8325 11.5474C13.8943 11.6881 14.094 11.6882 14.1557 11.5474ZM10.4789 1.54082C9.9282 1.54082 9.47549 1.40991 9.10792 1.23525C8.37084 0.884873 7.97601 0.3585 7.81989 0.3585C7.15307 0.3585 7.67356 5.42434 10.5107 6.6387C11.3179 6.98418 12.2993 7.05328 13.4625 6.69811C13.7421 6.61279 14.246 6.61279 14.5257 6.69811C15.6889 7.05328 16.6703 6.98418 17.4775 6.6387C20.3146 5.42434 20.8351 0.3585 20.1683 0.3585C20.0121 0.3585 19.6173 0.884929 18.8803 1.23525C18.5127 1.40991 18.06 1.54082 17.5093 1.54082H17.2825C16.8581 1.54082 16.4929 1.39313 16.1861 1.09748C15.9149 0.835998 15.4935 0.633195 14.9277 0.923996C14.9043 0.936034 14.8793 0.936703 14.8554 0.925891C14.8314 0.915079 14.8152 0.895908 14.8085 0.870272C14.5041 -0.290091 13.484 -0.290091 13.1796 0.870272C13.1728 0.895908 13.1566 0.915079 13.1327 0.925891C13.1088 0.936758 13.0837 0.936034 13.0604 0.923996C12.4946 0.633195 12.0733 0.835998 11.802 1.09748C11.4952 1.39313 11.13 1.54082 10.7057 1.54082H10.4789ZM10.2196 17.773V17.4784H10.3135C10.3762 17.4784 10.4266 17.4605 10.4649 17.4248C10.5032 17.389 10.5223 17.3416 10.5223 17.2827V16.2052H10.8459V17.268C10.8459 17.369 10.8243 17.4574 10.7812 17.5332C10.738 17.6089 10.6764 17.6679 10.5964 17.7099C10.5164 17.7521 10.4221 17.7731 10.3135 17.7731L10.2196 17.773ZM12.0065 17.7983C11.8896 17.7983 11.781 17.7779 11.6808 17.7372C11.5806 17.6966 11.4932 17.6394 11.4188 17.5657C11.3444 17.492 11.2863 17.4061 11.2445 17.3079C11.2028 17.2097 11.1819 17.1031 11.1819 16.9881C11.1819 16.873 11.2024 16.7664 11.2435 16.6682C11.2845 16.57 11.3423 16.4844 11.4167 16.4114C11.4912 16.3385 11.5785 16.2817 11.6787 16.2409C11.7789 16.2003 11.8881 16.1799 12.0064 16.1799C12.1247 16.1799 12.234 16.2003 12.3342 16.2409C12.4344 16.2816 12.5217 16.3385 12.5961 16.4114C12.6706 16.4844 12.7284 16.57 12.7694 16.6682C12.8105 16.7664 12.831 16.873 12.831 16.9881C12.831 17.1031 12.8101 17.2098 12.7683 17.3079C12.7265 17.4061 12.6684 17.492 12.594 17.5657C12.5196 17.6394 12.4322 17.6965 12.332 17.7372C12.2318 17.7779 12.1234 17.7983 12.0065 17.7983ZM12.0065 17.5036C12.0775 17.5036 12.1432 17.491 12.2037 17.4658C12.2643 17.4405 12.3175 17.4051 12.3634 17.3595C12.4094 17.3139 12.4449 17.2596 12.4699 17.1964C12.495 17.1333 12.5075 17.0639 12.5075 16.9881C12.5075 16.9123 12.495 16.8432 12.4699 16.7808C12.4449 16.7183 12.4094 16.664 12.3634 16.6177C12.3176 16.5714 12.2643 16.5359 12.2037 16.5114C12.1432 16.4869 12.0775 16.4746 12.0065 16.4746C11.9355 16.4746 11.8698 16.4869 11.8092 16.5114C11.7487 16.536 11.6955 16.5714 11.6495 16.6177C11.6036 16.6639 11.5681 16.7183 11.5431 16.7808C11.518 16.8432 11.5055 16.9123 11.5055 16.9881C11.5055 17.0638 11.5181 17.1332 11.5431 17.1964C11.5681 17.2596 11.6036 17.3139 11.6495 17.3595C11.6955 17.4051 11.7487 17.4405 11.8092 17.4658C11.8698 17.491 11.9355 17.5036 12.0065 17.5036ZM13.9208 17.7983C13.8094 17.7983 13.7058 17.7779 13.6097 17.7372C13.5137 17.6966 13.4295 17.6397 13.3571 17.5668C13.2847 17.4938 13.2284 17.4082 13.188 17.31C13.1476 17.2118 13.1275 17.1045 13.1275 16.988C13.1275 16.8715 13.147 16.7639 13.1859 16.665C13.2249 16.5661 13.2798 16.4805 13.3508 16.4082C13.4218 16.336 13.5049 16.2798 13.6003 16.2399C13.6956 16.1999 13.7996 16.1799 13.9124 16.1799C14.0251 16.1799 14.1264 16.1988 14.2161 16.2367C14.3059 16.2746 14.3821 16.3251 14.4447 16.3882C14.5074 16.4514 14.5519 16.5215 14.5783 16.5987L14.2923 16.7376C14.2659 16.6618 14.2196 16.5991 14.1535 16.5492C14.0874 16.4995 14.007 16.4745 13.9124 16.4745C13.8205 16.4745 13.7398 16.4962 13.6702 16.5398C13.6006 16.5832 13.5467 16.6432 13.5084 16.7197C13.4702 16.7961 13.451 16.8856 13.451 16.988C13.451 17.0904 13.4711 17.1802 13.5115 17.2574C13.5519 17.3345 13.6071 17.3948 13.6775 17.4383C13.7478 17.4818 13.8288 17.5035 13.9206 17.5035C13.9916 17.5035 14.0581 17.4899 14.1201 17.4625C14.182 17.4351 14.2321 17.3955 14.2704 17.3436C14.3087 17.2917 14.3278 17.2293 14.3278 17.1563V17.0258L14.476 17.1521H13.9124V16.8785H14.6514V17.0447C14.6514 17.1724 14.6305 17.2836 14.5887 17.3783C14.5469 17.473 14.4909 17.5516 14.4207 17.614C14.3504 17.6764 14.2718 17.7228 14.1848 17.7529C14.0978 17.7831 14.0098 17.7983 13.9208 17.7983ZM14.9645 17.773V16.2052H15.2881V17.4889H15.9457V17.773H14.9645ZM16.956 17.7983C16.8391 17.7983 16.7306 17.7779 16.6304 17.7372C16.5301 17.6966 16.4428 17.6394 16.3684 17.5657C16.2939 17.492 16.2358 17.4061 16.1941 17.3079C16.1523 17.2097 16.1315 17.1031 16.1315 16.9881C16.1315 16.873 16.152 16.7664 16.193 16.6682C16.2341 16.57 16.2918 16.4844 16.3663 16.4114C16.4408 16.3385 16.5281 16.2817 16.6283 16.2409C16.7285 16.2003 16.8377 16.1799 16.956 16.1799C17.0743 16.1799 17.1835 16.2003 17.2837 16.2409C17.3839 16.2816 17.4713 16.3385 17.5457 16.4114C17.6202 16.4844 17.6779 16.57 17.7189 16.6682C17.76 16.7664 17.7805 16.873 17.7805 16.9881C17.7805 17.1031 17.7596 17.2098 17.7179 17.3079C17.6761 17.4061 17.618 17.492 17.5436 17.5657C17.4691 17.6394 17.3818 17.6965 17.2816 17.7372C17.1814 17.7779 17.073 17.7983 16.956 17.7983ZM16.956 17.5036C17.027 17.5036 17.0928 17.491 17.1533 17.4658C17.2138 17.4405 17.2671 17.4051 17.313 17.3595C17.3589 17.3139 17.3944 17.2596 17.4195 17.1964C17.4445 17.1333 17.4571 17.0639 17.4571 16.9881C17.4571 16.9123 17.4445 16.8432 17.4195 16.7808C17.3944 16.7183 17.3589 16.664 17.313 16.6177C17.2671 16.5714 17.2139 16.5359 17.1533 16.5114C17.0928 16.4869 17.027 16.4746 16.956 16.4746C16.8851 16.4746 16.8193 16.4869 16.7588 16.5114C16.6983 16.536 16.645 16.5714 16.5991 16.6177C16.5531 16.6639 16.5177 16.7183 16.4926 16.7808C16.4676 16.8432 16.4551 16.9123 16.4551 16.9881C16.4551 17.0638 16.4676 17.1332 16.4926 17.1964C16.5177 17.2596 16.5531 17.3139 16.5991 17.3595C16.645 17.4051 16.6982 17.4405 16.7588 17.4658C16.8193 17.491 16.8851 17.5036 16.956 17.5036ZM14.3898 19.1102H15.8093V25.4123H14.8731V22.5605L14.108 23.21V26.285C14.108 26.5218 14.0627 26.7433 13.9721 26.9496C13.8815 27.156 13.7591 27.337 13.6047 27.4926C13.4503 27.6482 13.2708 27.7716 13.0661 27.863C12.8614 27.9544 12.6416 28 12.4067 28C12.1718 28 11.952 27.9543 11.7474 27.863C11.5427 27.7717 11.3632 27.6482 11.2088 27.4926C11.0545 27.337 10.9336 27.156 10.8464 26.9496C10.7592 26.7433 10.7156 26.5217 10.7156 26.285V26.2748C10.7156 26.038 10.7609 25.8164 10.8515 25.6101C10.8817 25.5413 10.9154 25.4754 10.9527 25.4122H9.87966V19.1H11.8124V19.9524H10.8158V21.4341H11.6413V22.2865H10.8158V24.5598H12.4168H12.5778V25.4122V25.5036H12.4168C12.2088 25.5036 12.0292 25.5797 11.8782 25.7319C11.7273 25.8841 11.6517 26.0652 11.6517 26.2749V26.285C11.6517 26.5015 11.7239 26.6841 11.8682 26.833C12.0125 26.9819 12.192 27.0563 12.4067 27.0563C12.6081 27.0563 12.7959 26.9887 12.9503 26.833C13.1048 26.6772 13.1718 26.4879 13.1718 26.285V20.3381C13.1718 20.1622 13.2037 19.9998 13.2674 19.851C13.3312 19.7021 13.4167 19.5736 13.5242 19.4653C13.6315 19.3571 13.7607 19.2708 13.9117 19.2066C14.0627 19.1423 14.2221 19.1102 14.3898 19.1102ZM3.30602 21.9997C3.30602 21.9185 3.27744 21.8387 3.20535 21.7764C3.13602 21.7166 3.04868 21.6971 2.96371 21.7256L2.54091 21.8678V23.5755V24.4685H3.02408C3.10462 24.4685 3.17174 24.4414 3.22542 24.3873C3.2791 24.3332 3.30596 24.2655 3.30596 24.1844V23.6132L3.30602 21.9997ZM6.07435 18.9985C6.24213 18.9985 6.39985 19.0323 6.54745 19.1C6.69511 19.1676 6.82431 19.2572 6.93504 19.3689C7.04577 19.4805 7.13301 19.6108 7.19675 19.7596C7.26049 19.9085 7.29238 20.0675 7.29238 20.2366V25.4123H6.35618V23.1492L5.58106 22.4997V25.4123H4.64485V20.2366C4.64485 20.0675 4.67675 19.9068 4.74049 19.7546C4.80428 19.6024 4.89152 19.4705 5.0022 19.3588C5.11293 19.2472 5.24212 19.1593 5.38978 19.095C5.53744 19.0307 5.69516 18.9986 5.86295 18.9986L6.07435 18.9985ZM6.35618 22.043V20.1351C6.35618 20.0607 6.32765 19.9947 6.2706 19.9372C6.21355 19.8797 6.14809 19.8509 6.07429 19.8509H5.86289C5.79578 19.8509 5.72231 19.8708 5.66155 19.9321C5.6008 19.9933 5.58106 20.0674 5.58106 20.135V21.3934L6.35618 22.043ZM8.63127 24.5598H9.62791V25.4122H7.69512V19.1H8.63133L8.63127 24.5598ZM14.8731 19.9626H14.3898C14.3093 19.9626 14.2422 19.9896 14.1885 20.0438C14.1348 20.0979 14.108 20.1655 14.108 20.2467V22.1039L14.8731 21.4544V19.9626ZM17.6414 18.9883C17.8159 18.9883 17.9769 19.0205 18.1246 19.0848C18.2722 19.1491 18.3997 19.237 18.5071 19.3486C18.6145 19.4603 18.7 19.5922 18.7638 19.7444C18.8275 19.8966 18.8594 20.0574 18.8594 20.2265V20.8557H17.9232V20.125C17.9232 20.0574 17.8998 19.9867 17.8427 19.922C17.7922 19.8648 17.7219 19.8408 17.6414 19.8408H17.44C17.3596 19.8408 17.2892 19.8649 17.2387 19.922C17.1816 19.9867 17.1582 20.0573 17.1582 20.125V24.3873C17.1582 24.455 17.1816 24.5255 17.2387 24.5903C17.2892 24.6475 17.3595 24.6714 17.44 24.6714H17.6414C17.7219 24.6714 17.7922 24.6475 17.8427 24.5903C17.8998 24.5255 17.9232 24.455 17.9232 24.3873V22.2866H17.581V21.4443H18.8594V24.2858C18.8594 24.455 18.8275 24.6157 18.7638 24.7679C18.7 24.9201 18.6145 25.052 18.5071 25.1637C18.3997 25.2753 18.2722 25.3632 18.1246 25.4275C17.9769 25.4918 17.8159 25.524 17.6414 25.524H17.44C17.2723 25.524 17.1129 25.4918 16.9618 25.4275C16.8109 25.3632 16.6817 25.2753 16.5743 25.1637C16.4669 25.052 16.3813 24.9201 16.3176 24.7679C16.2538 24.6157 16.2219 24.4549 16.2219 24.2858V20.2265C16.2219 20.0574 16.2538 19.8966 16.3176 19.7444C16.3813 19.5922 16.4669 19.4603 16.5743 19.3486C16.6817 19.237 16.8108 19.1491 16.9618 19.0848C17.1129 19.0205 17.2723 18.9883 17.44 18.9883H17.6414ZM20.9735 24.3873V19.1H21.9097V24.2858C21.9097 24.4549 21.8778 24.6156 21.8141 24.7678C21.7503 24.9201 21.6647 25.0502 21.5574 25.1585C21.45 25.2668 21.3225 25.353 21.1749 25.4173C21.0272 25.4815 20.8661 25.5137 20.6917 25.5137H20.4802C20.3125 25.5137 20.1547 25.4815 20.0071 25.4173C19.8594 25.353 19.7303 25.265 19.6195 25.1535C19.5088 25.0418 19.4215 24.9115 19.3578 24.7627C19.2941 24.6139 19.2622 24.4549 19.2622 24.2857V19.0999H20.1984V24.3872C20.1984 24.4616 20.2319 24.5224 20.289 24.58C20.3461 24.6377 20.4064 24.6714 20.4802 24.6714H20.6917C20.7655 24.6714 20.8309 24.6426 20.888 24.5851C20.945 24.5276 20.9735 24.4617 20.9735 24.3873ZM23.7418 19.1C23.8962 19.1 24.0455 19.1287 24.1898 19.1862C24.3341 19.2437 24.4633 19.3232 24.5774 19.4247C24.6915 19.5262 24.7838 19.6446 24.8543 19.7799C24.9247 19.9152 24.96 20.0641 24.96 20.2264V25.4021H24.0237V20.2264C24.0237 20.152 23.9934 20.091 23.9432 20.0336C23.8926 19.9758 23.8291 19.9423 23.7419 19.9423H23.2587V25.4021H22.3124V19.1H23.7418ZM26.782 17.7982C26.9564 17.7982 27.1175 17.8304 27.2652 17.8946C27.4128 17.9589 27.5403 18.0469 27.6477 18.1585C27.7551 18.2701 27.8406 18.4021 27.9044 18.5543C27.9682 18.7065 28 18.8672 28 19.0363V19.6656H27.0638V18.9348C27.0638 18.8672 27.0403 18.7966 26.9832 18.7319C26.9328 18.6747 26.8624 18.6507 26.7819 18.6507H26.5806C26.5001 18.6507 26.4297 18.6747 26.3792 18.7319C26.3221 18.7966 26.2987 18.8672 26.2987 18.9348V24.3872C26.2987 24.4549 26.3222 24.5254 26.3792 24.5902C26.4297 24.6474 26.5001 24.6713 26.5806 24.6713H26.7819C26.8625 24.6713 26.9328 24.6474 26.9832 24.5902C27.0404 24.5254 27.0638 24.4549 27.0638 24.3872V22.2865H26.7215V21.4442H27.9999V24.2857C27.9999 24.4549 27.9681 24.6155 27.9043 24.7677C27.8406 24.92 27.755 25.0519 27.6476 25.1635C27.5403 25.2752 27.4127 25.3631 27.2651 25.4274C27.1175 25.4917 26.9564 25.5238 26.7819 25.5238H26.5806C26.4128 25.5238 26.2534 25.4917 26.1024 25.4274C25.9515 25.3631 25.8223 25.2752 25.7148 25.1635C25.6074 25.0519 25.5218 24.92 25.4581 24.7677C25.3944 24.6155 25.3625 24.4548 25.3625 24.2857V19.0363C25.3625 18.8672 25.3944 18.7065 25.4581 18.5543C25.5218 18.4021 25.6074 18.2701 25.7148 18.1585C25.8222 18.0469 25.9514 17.9589 26.1024 17.8946C26.2534 17.8304 26.4128 17.7982 26.5806 17.7982H26.782Z" fill="#5E5E63"/>
</svg>
