<svg width="1050" height="465" viewBox="0 0 1050 465" fill="none" xmlns="http://www.w3.org/2000/svg">
<rect opacity="0.15" x="937.12" y="172.19" width="16.5013" height="16.5088" rx="8.25063" transform="rotate(-49 937.12 172.19)" fill="#F4717D"/>
<rect opacity="0.2" x="883.49" y="316.17" width="13.4975" height="13.4975" rx="6.74876" transform="rotate(-26 883.49 316.17)" fill="#8474F9"/>
<rect opacity="0.2" x="646.49" y="362.83" width="17.9996" height="17.9996" rx="8.9998" transform="rotate(23 646.49 362.83)" fill="#55A5FF"/>
<rect opacity="0.2" x="373.3" y="293.99" width="18.0018" height="17.9936" rx="8.99681" transform="rotate(35 373.3 293.99)" fill="#8474F9"/>
<rect opacity="0.2" x="396.29" y="90.15" width="22.4987" height="22.4987" rx="11.2493" transform="rotate(20 396.29 90.15)" fill="#F4717D"/>
<rect opacity="0.4" x="111.78" y="135.75" width="13.5008" height="13.5008" rx="6.75038" transform="rotate(17 111.78 135.75)" fill="#55A5FF"/>
<rect opacity="0.3" x="130.47" y="288.61" width="36.0025" height="36.0025" rx="15" transform="rotate(-26 130.47 288.61)" fill="#F4717D"/>
<rect opacity="0.4" x="810.07" y="119.25" width="29.9991" height="29.9991" rx="14.9995" transform="rotate(20 810.07 119.25)" fill="#8474F9"/>
</svg>
