<svg width="1356" height="601" viewBox="0 0 1356 601" fill="none" xmlns="http://www.w3.org/2000/svg">
<g opacity="0.76457">
<rect opacity="0.15" x="1146.43" y="238.68" width="19.0535" height="19.0469" rx="3" transform="rotate(-49 1146.43 238.68)" fill="#323235"/>
<rect opacity="0.2" x="1082.78" y="402.99" width="15.5772" height="15.5862" rx="2" transform="rotate(-26 1082.78 402.99)" fill="#323235"/>
<rect opacity="0.2" x="811.49" y="458.76" width="20.7728" height="20.782" rx="4" transform="rotate(23 811.49 458.76)" fill="#323235"/>
<rect opacity="0.2" x="496.67" y="377.39" width="20.779" height="20.779" rx="4" transform="rotate(35 496.67 377.39)" fill="#323235"/>
<rect opacity="0.2" x="522.63" y="141.43" width="25.9785" height="25.975" rx="5" transform="rotate(20 522.63 141.43)" fill="black"/>
<rect opacity="0.4" x="193.6" y="195.97" width="15.5822" height="15.5822" rx="2" transform="rotate(17 193.6 195.97)" fill="#323235"/>
<rect opacity="0.3" x="201.29" y="392.68" width="41.5571" height="41.5527" rx="6" transform="rotate(-26 201.29 392.68)" fill="#323235"/>
<rect opacity="0.4" x="985.87" y="189.56" width="34.6305" height="34.6399" rx="6" transform="rotate(20 985.87 189.56)" fill="#323235"/>
</g>
</svg>
