<svg width="42" height="42" viewBox="0 0 42 42" fill="none" xmlns="http://www.w3.org/2000/svg">
<path d="M3.41888 26.6974C3.80141 26.6974 4.17133 26.7532 4.52874 26.8648C4.88614 26.9764 5.20075 27.1515 5.47249 27.39C5.74431 27.6285 5.96075 27.933 6.12178 28.3034C6.2829 28.6738 6.36334 29.1178 6.36334 29.6354C6.36334 30.0311 6.29791 30.3863 6.16706 30.7009C6.03621 31.0155 5.87011 31.2997 5.66877 31.5533C5.89026 31.7259 6.06133 31.9389 6.18215 32.1926C6.30297 32.4464 6.36334 32.7154 6.36334 32.9994V36.2764C6.36334 36.5301 6.31558 36.7686 6.21988 36.9919C6.12427 37.2152 5.99342 37.4104 5.82732 37.578C5.66123 37.7454 5.46743 37.8773 5.24594 37.9737C5.02445 38.0702 4.78787 38.1183 4.5362 38.1183H2.40705V29.3765H3.81136V31.1727C3.84155 31.1625 3.91709 31.1245 4.03783 31.0585C4.15865 30.9925 4.28701 30.8987 4.42292 30.7769C4.55884 30.6551 4.68214 30.4977 4.79285 30.305C4.90355 30.1122 4.95894 29.8889 4.95894 29.6352C4.95894 29.3612 4.91864 29.1278 4.83812 28.9349C4.7576 28.7422 4.64682 28.5848 4.50593 28.463C4.36504 28.3413 4.20135 28.2525 4.01519 28.1966C3.82894 28.1409 3.63017 28.1129 3.41872 28.1129C3.01604 28.1129 2.65864 28.222 2.3466 28.4402C2.03447 28.6584 1.79789 28.9375 1.63685 29.2775C1.47581 29.6175 1.40284 29.9904 1.41785 30.3963C1.43294 30.8023 1.56131 31.1929 1.80295 31.5685L0.625099 32.3449C0.353357 31.9288 0.172086 31.5001 0.0815333 31.0586C-0.00901945 30.6171 -0.0241945 30.1884 0.0362569 29.7723C0.0967084 29.3562 0.222504 28.9604 0.413809 28.5849C0.605031 28.2094 0.849159 27.8822 1.14619 27.6031C1.44314 27.324 1.78545 27.1033 2.17295 26.9409C2.56054 26.7786 2.97582 26.6974 3.41872 26.6974H3.41888ZM21.2336 17.3212C21.7891 16.0553 22.1388 14.1897 22.332 13.2484C22.3585 13.1187 22.4725 13.0296 22.6036 13.0356C27.0495 13.2424 28.7625 10.9564 29.8494 8.2838C29.8952 8.17103 30.0061 8.10533 30.1261 8.11987C30.2461 8.13433 30.3384 8.2247 30.3566 8.34516C31.4732 15.7415 32.9431 17.5317 34.7181 19.2718C38.2178 22.7027 40.5508 17.9657 36.1919 17.0863C36.0608 17.06 35.9706 16.9417 35.9791 16.8073C35.9877 16.6745 36.0893 16.5692 36.2207 16.5578C43.2131 15.9382 45.5732 26.8852 33.2632 23.6814C28.7195 22.4988 24.8414 20.4963 20.9949 20.4243C17.223 20.3538 12.3709 22.731 8.71904 23.6814C-3.59091 26.8852 -1.23082 15.9382 5.76165 16.5578C5.89333 16.5694 5.99466 16.6743 6.00312 16.8073C6.01174 16.9417 5.92161 17.06 5.7905 17.0863C1.43145 17.9657 3.76443 22.7027 7.26422 19.2718C9.03921 17.5317 10.5091 15.7415 11.6258 8.34508C11.6439 8.22462 11.7362 8.13433 11.8562 8.11987C11.9762 8.10541 12.0872 8.17103 12.1329 8.28372C13.2199 10.9564 14.9328 13.2424 19.3786 13.0356C19.5098 13.0295 19.6238 13.1187 19.6504 13.2483C19.8435 14.1897 20.1933 16.0552 20.7488 17.3212C20.8414 17.5322 21.1409 17.5323 21.2336 17.3212ZM15.7184 2.31123C14.8923 2.31123 14.2132 2.11486 13.6619 1.85288C12.5563 1.32731 11.964 0.53775 11.7298 0.53775C10.7296 0.53775 11.5103 8.13651 15.766 9.95806C16.9768 10.4763 18.4489 10.5799 20.1938 10.0472C20.6132 9.91918 21.3691 9.91918 21.7885 10.0472C23.5334 10.5799 25.0054 10.4763 26.2163 9.95806C30.4719 8.13651 31.2527 0.53775 30.2524 0.53775C30.0182 0.53775 29.426 1.32739 28.3204 1.85288C27.7691 2.11486 27.09 2.31123 26.2639 2.31123H25.9237C25.2871 2.31123 24.7393 2.0897 24.2792 1.64623C23.8723 1.254 23.2403 0.949792 22.3916 1.38599C22.3565 1.40405 22.319 1.40505 22.283 1.38884C22.2471 1.37262 22.2228 1.34386 22.2127 1.30541C21.7561 -0.435136 20.226 -0.435136 19.7694 1.30541C19.7593 1.34386 19.735 1.37262 19.6991 1.38884C19.6632 1.40514 19.6256 1.40405 19.5906 1.38599C18.7419 0.949792 18.1099 1.254 17.703 1.64623C17.2429 2.0897 16.6951 2.31123 16.0585 2.31123H15.7184ZM15.3294 26.6595V26.2177H15.4703C15.5642 26.2177 15.6399 26.1908 15.6973 26.1371C15.7548 26.0835 15.7835 26.0124 15.7835 25.9241V24.3078H16.2688V25.902C16.2688 26.0536 16.2365 26.1861 16.1717 26.2997C16.107 26.4133 16.0147 26.5018 15.8946 26.5649C15.7746 26.6281 15.6331 26.6596 15.4703 26.6596H15.3294V26.6595ZM18.0097 26.6974C17.8344 26.6974 17.6716 26.6669 17.5212 26.6059C17.3709 26.5448 17.2399 26.4591 17.1283 26.3486C17.0166 26.238 16.9294 26.1091 16.8668 25.9618C16.8042 25.8146 16.7728 25.6546 16.7728 25.4821C16.7728 25.3096 16.8036 25.1496 16.8652 25.0023C16.9268 24.855 17.0134 24.7266 17.1251 24.6171C17.2368 24.5077 17.3678 24.4225 17.5181 24.3614C17.6684 24.3004 17.8322 24.2699 18.0097 24.2699C18.1871 24.2699 18.351 24.3004 18.5012 24.3614C18.6516 24.4224 18.7826 24.5077 18.8942 24.6171C19.0059 24.7266 19.0926 24.855 19.1541 25.0023C19.2157 25.1496 19.2465 25.3096 19.2465 25.4821C19.2465 25.6546 19.2151 25.8146 19.1525 25.9618C19.0898 26.1091 19.0027 26.238 18.891 26.3486C18.7794 26.4591 18.6483 26.5448 18.4981 26.6059C18.3477 26.6669 18.185 26.6974 18.0096 26.6974H18.0097ZM18.0097 26.2554C18.1162 26.2554 18.2148 26.2365 18.3056 26.1987C18.3964 26.1608 18.4763 26.1076 18.5452 26.0393C18.6141 25.9709 18.6673 25.8894 18.7049 25.7947C18.7424 25.6999 18.7613 25.5958 18.7613 25.4821C18.7613 25.3685 18.7424 25.2648 18.7049 25.1712C18.6673 25.0775 18.6141 24.996 18.5452 24.9265C18.4763 24.857 18.3965 24.8039 18.3056 24.7671C18.2148 24.7303 18.1162 24.7118 18.0097 24.7118C17.9033 24.7118 17.8047 24.7303 17.7139 24.7671C17.6231 24.804 17.5432 24.857 17.4743 24.9265C17.4054 24.9959 17.3521 25.0775 17.3146 25.1712C17.277 25.2648 17.2583 25.3685 17.2583 25.4821C17.2583 25.5957 17.2771 25.6999 17.3146 25.7947C17.3521 25.8894 17.4054 25.9709 17.4743 26.0393C17.5432 26.1076 17.623 26.1608 17.7139 26.1987C17.8047 26.2365 17.9033 26.2554 18.0097 26.2554ZM20.8811 26.6974C20.7141 26.6974 20.5586 26.6669 20.4146 26.6059C20.2706 26.5448 20.1443 26.4596 20.0356 26.3502C19.9271 26.2407 19.8426 26.1123 19.782 25.965C19.7214 25.8177 19.6912 25.6567 19.6912 25.482C19.6912 25.3073 19.7205 25.1458 19.7788 24.9975C19.8373 24.8491 19.9197 24.7208 20.0262 24.6124C20.1327 24.5039 20.2574 24.4198 20.4004 24.3598C20.5434 24.2999 20.6994 24.2699 20.8685 24.2699C21.0376 24.2699 21.1895 24.2982 21.3242 24.3551C21.4589 24.4119 21.5731 24.4876 21.6671 24.5824C21.761 24.6771 21.8278 24.7823 21.8674 24.898L21.4385 25.1064C21.3988 24.9927 21.3294 24.8986 21.2302 24.8239C21.1311 24.7492 21.0105 24.7118 20.8685 24.7118C20.7307 24.7118 20.6096 24.7444 20.5053 24.8097C20.4009 24.8749 20.3201 24.9648 20.2626 25.0795C20.2052 25.1942 20.1765 25.3284 20.1765 25.482C20.1765 25.6357 20.2067 25.7703 20.2673 25.886C20.3278 26.0017 20.4107 26.0923 20.5162 26.1575C20.6217 26.2228 20.7432 26.2553 20.881 26.2553C20.9874 26.2553 21.0871 26.2348 21.1801 26.1937C21.2729 26.1527 21.3481 26.0933 21.4055 26.0154C21.463 25.9376 21.4917 25.8439 21.4917 25.7345V25.5388L21.714 25.7281H20.8685V25.3177H21.9771V25.5671C21.9771 25.7586 21.9457 25.9254 21.8831 26.0674C21.8204 26.2095 21.7364 26.3273 21.631 26.421C21.5256 26.5147 21.4077 26.5841 21.2772 26.6294C21.1467 26.6746 21.0146 26.6972 20.8811 26.6972L20.8811 26.6974ZM22.4468 26.6595V24.3078H22.9322V26.2334H23.9186V26.6595H22.4468ZM25.4341 26.6974C25.2587 26.6974 25.0959 26.6669 24.9456 26.6059C24.7952 26.5448 24.6642 26.4591 24.5526 26.3486C24.4409 26.238 24.3537 26.1091 24.2911 25.9618C24.2285 25.8146 24.1972 25.6546 24.1972 25.4821C24.1972 25.3096 24.2279 25.1496 24.2896 25.0023C24.3511 24.855 24.4377 24.7266 24.5494 24.6171C24.6611 24.5077 24.7922 24.4225 24.9424 24.3614C25.0928 24.3004 25.2565 24.2699 25.434 24.2699C25.6114 24.2699 25.7753 24.3004 25.9256 24.3614C26.0759 24.4224 26.2069 24.5077 26.3185 24.6171C26.4302 24.7266 26.5169 24.855 26.5784 25.0023C26.64 25.1496 26.6708 25.3096 26.6708 25.4821C26.6708 25.6546 26.6394 25.8146 26.5768 25.9618C26.5141 26.1091 26.427 26.238 26.3154 26.3486C26.2037 26.4591 26.0727 26.5448 25.9224 26.6059C25.7721 26.6669 25.6093 26.6974 25.4339 26.6974H25.4341ZM25.4341 26.2554C25.5405 26.2554 25.6391 26.2365 25.7299 26.1987C25.8207 26.1608 25.9006 26.1076 25.9695 26.0393C26.0384 25.9709 26.0917 25.8894 26.1292 25.7947C26.1668 25.6999 26.1856 25.5958 26.1856 25.4821C26.1856 25.3685 26.1668 25.2648 26.1292 25.1712C26.0917 25.0775 26.0384 24.996 25.9695 24.9265C25.9007 24.857 25.8208 24.8039 25.7299 24.7671C25.6391 24.7303 25.5405 24.7118 25.4341 24.7118C25.3276 24.7118 25.229 24.7303 25.1382 24.7671C25.0474 24.804 24.9675 24.857 24.8986 24.9265C24.8297 24.9959 24.7765 25.0775 24.7389 25.1712C24.7014 25.2648 24.6826 25.3685 24.6826 25.4821C24.6826 25.5957 24.7014 25.6999 24.7389 25.7947C24.7765 25.8894 24.8297 25.9709 24.8986 26.0393C24.9675 26.1076 25.0473 26.1608 25.1382 26.1987C25.229 26.2365 25.3276 26.2554 25.4341 26.2554ZM21.5847 28.6652H23.7139V38.1184H22.3096V33.8408L21.162 34.815V39.4274C21.162 39.7826 21.094 40.115 20.9582 40.4245C20.8223 40.734 20.6386 41.0055 20.407 41.2389C20.1755 41.4723 19.9062 41.6574 19.5991 41.7945C19.2921 41.9315 18.9624 42 18.6101 42C18.2578 42 17.9281 41.9314 17.6211 41.7945C17.314 41.6575 17.0448 41.4723 16.8132 41.2389C16.5817 41.0055 16.4004 40.7339 16.2697 40.4245C16.1388 40.1149 16.0734 39.7825 16.0734 39.4274V39.4122C16.0734 39.057 16.1413 38.7246 16.2772 38.4152C16.3225 38.312 16.3732 38.213 16.429 38.1183H14.8195V28.65H17.7187V29.9286H16.2237V32.1511H17.4619V33.4298H16.2237V36.8396H18.6252H18.8668V38.1183V38.2553H18.6252C18.3132 38.2553 18.0438 38.3695 17.8174 38.5979C17.5909 38.8262 17.4776 39.0977 17.4776 39.4123V39.4275C17.4776 39.7523 17.5858 40.0262 17.8023 40.2495C18.0187 40.4728 18.2879 40.5844 18.6101 40.5844C18.9121 40.5844 19.1938 40.4831 19.4255 40.2495C19.6573 40.0159 19.7577 39.7319 19.7577 39.4275V30.5071C19.7577 30.2433 19.8055 29.9997 19.9011 29.7765C19.9968 29.5532 20.1251 29.3604 20.2862 29.198C20.4473 29.0357 20.6411 28.9063 20.8676 28.8099C21.0941 28.7135 21.3332 28.6652 21.5848 28.6652H21.5847ZM4.95903 32.9995C4.95903 32.8778 4.91615 32.758 4.80802 32.6646C4.70404 32.5748 4.57302 32.5457 4.44556 32.5885L3.81136 32.8016V35.3633V36.7027H4.53612C4.65694 36.7027 4.7576 36.6622 4.83812 36.581C4.91864 36.4998 4.95894 36.3983 4.95894 36.2765V35.4198V32.9996L4.95903 32.9995ZM9.11152 28.4977C9.36319 28.4977 9.59977 28.5485 9.82118 28.65C10.0427 28.7514 10.2365 28.8859 10.4026 29.0534C10.5687 29.2208 10.6995 29.4162 10.7951 29.6395C10.8907 29.8628 10.9386 30.1013 10.9386 30.355V38.1185H9.53426V34.7238L8.37159 33.7496V38.1185H6.96727V30.355C6.96727 30.1013 7.01512 29.8602 7.11073 29.6319C7.20643 29.4036 7.33728 29.2057 7.50329 29.0382C7.66939 28.8708 7.86318 28.7389 8.08467 28.6425C8.30616 28.5461 8.54274 28.4979 8.79442 28.4979H9.11152V28.4977ZM9.53426 33.0645V30.2027C9.53426 30.0911 9.49147 29.9921 9.4059 29.9058C9.32032 29.8195 9.22214 29.7764 9.11143 29.7764H8.79433C8.69366 29.7764 8.58346 29.8062 8.49233 29.8981C8.40119 29.99 8.37159 30.1011 8.37159 30.2026V32.0902L9.53426 33.0644V33.0645ZM12.9469 36.8396H14.4419V38.1183H11.5427V28.65H12.947V36.8397L12.9469 36.8396ZM22.3096 29.9438H21.5847C21.464 29.9438 21.3633 29.9845 21.2827 30.0656C21.2022 30.1468 21.162 30.2483 21.162 30.3701V33.1558L22.3096 32.1816V29.9438ZM26.4621 28.4825C26.7238 28.4825 26.9654 28.5307 27.1868 28.6271C27.4083 28.7236 27.5995 28.8555 27.7607 29.023C27.9217 29.1904 28.0501 29.3884 28.1457 29.6166C28.2413 29.8449 28.2891 30.086 28.2891 30.3398V31.2835H26.8848V30.1875C26.8848 30.086 26.8497 29.9801 26.7641 29.883C26.6884 29.7972 26.5828 29.7613 26.4621 29.7613H26.1601C26.0393 29.7613 25.9338 29.7973 25.8581 29.883C25.7724 29.9801 25.7373 30.086 25.7373 30.1875V36.581C25.7373 36.6825 25.7724 36.7883 25.8581 36.8855C25.9338 36.9713 26.0392 37.0072 26.1601 37.0072H26.4621C26.5829 37.0072 26.6884 36.9712 26.7641 36.8855C26.8497 36.7883 26.8848 36.6825 26.8848 36.581V33.4299H26.3714V32.1665H28.2891V36.4288C28.2891 36.6825 28.2413 36.9235 28.1457 37.1518C28.0501 37.3802 27.9217 37.578 27.7607 37.7455C27.5995 37.9129 27.4083 38.0448 27.1868 38.1413C26.9653 38.2377 26.7238 38.2859 26.4621 38.2859H26.1601C25.9084 38.2859 25.6693 38.2377 25.4428 38.1413C25.2163 38.0448 25.0225 37.9129 24.8614 37.7455C24.7004 37.578 24.572 37.3802 24.4764 37.1518C24.3808 36.9235 24.3329 36.6824 24.3329 36.4288V30.3398C24.3329 30.086 24.3807 29.8449 24.4764 29.6166C24.572 29.3884 24.7004 29.1904 24.8614 29.023C25.0225 28.8555 25.2162 28.7236 25.4428 28.6271C25.6693 28.5307 25.9084 28.4825 26.1601 28.4825H26.4621ZM31.4602 36.5809V28.65H32.8645V36.4287C32.8645 36.6824 32.8167 36.9234 32.7211 37.1517C32.6255 37.3801 32.4971 37.5754 32.3361 37.7378C32.175 37.9001 31.9837 38.0295 31.7623 38.1259C31.5408 38.2223 31.2992 38.2705 31.0375 38.2705H30.7204C30.4687 38.2705 30.2321 38.2223 30.0106 38.1259C29.7891 38.0295 29.5954 37.8975 29.4292 37.7302C29.2632 37.5627 29.1323 37.3673 29.0367 37.1441C28.9411 36.9208 28.8932 36.6823 28.8932 36.4286V28.6499H30.2975V36.5808C30.2975 36.6924 30.3478 36.7836 30.4335 36.8701C30.5191 36.9565 30.6096 37.0071 30.7204 37.0071H31.0375C31.1483 37.0071 31.2464 36.964 31.3319 36.8777C31.4175 36.7914 31.4603 36.6924 31.4603 36.5808L31.4602 36.5809ZM35.6127 28.65C35.8442 28.65 36.0683 28.6931 36.2847 28.7794C36.5012 28.8656 36.6949 28.9848 36.8661 29.1371C37.0373 29.2893 37.1757 29.4669 37.2814 29.6699C37.387 29.8729 37.4399 30.0962 37.4399 30.3397V38.1031H36.0356V30.3397C36.0356 30.228 35.9901 30.1365 35.9148 30.0504C35.8388 29.9637 35.7436 29.9134 35.6128 29.9134H34.888V38.1031H33.4686V28.65H35.6129H35.6127ZM40.1729 26.6973C40.4346 26.6973 40.6763 26.7456 40.8978 26.8419C41.1193 26.9384 41.3105 27.0703 41.4715 27.2378C41.6326 27.4052 41.7609 27.6031 41.8565 27.8315C41.9522 28.0598 42 28.3009 42 28.5545V29.4984H40.5957V28.4023C40.5957 28.3008 40.5604 28.1949 40.4749 28.0978C40.3992 28.012 40.2936 27.9761 40.1729 27.9761H39.8708C39.7501 27.9761 39.6445 28.0121 39.5688 28.0978C39.4832 28.1949 39.4481 28.3008 39.4481 28.4023V36.5808C39.4481 36.6823 39.4833 36.7882 39.5688 36.8853C39.6445 36.9711 39.7501 37.007 39.8708 37.007H40.1729C40.2937 37.007 40.3992 36.9711 40.4749 36.8853C40.5605 36.7882 40.5957 36.6823 40.5957 36.5808V33.4298H40.0822V32.1663H41.9999V36.4286C41.9999 36.6823 41.9522 36.9233 41.8565 37.1516C41.7608 37.38 41.6325 37.5779 41.4714 37.7453C41.3104 37.9128 41.1191 38.0447 40.8977 38.1411C40.6762 38.2375 40.4346 38.2858 40.1729 38.2858H39.8708C39.6192 38.2858 39.3801 38.2375 39.1536 38.1411C38.9272 38.0447 38.7334 37.9128 38.5723 37.7453C38.4111 37.5779 38.2828 37.38 38.1872 37.1516C38.0915 36.9233 38.0437 36.6822 38.0437 36.4286V28.5545C38.0437 28.3008 38.0915 28.0598 38.1872 27.8315C38.2828 27.6032 38.4111 27.4052 38.5723 27.2378C38.7333 27.0703 38.9271 26.9384 39.1536 26.8419C39.3801 26.7456 39.6193 26.6973 39.8708 26.6973H40.1729H40.1729Z" fill="#603A15"/>
</svg>
