<svg xmlns="http://www.w3.org/2000/svg" xmlns:xlink="http://www.w3.org/1999/xlink" width="500" zoomAndPan="magnify" viewBox="0 0 375 374.999991" height="500" preserveAspectRatio="xMidYMid meet" version="1.0"><defs><g/><clipPath id="9638989616"><path d="M 109 84.15625 L 265.707031 84.15625 L 265.707031 291.15625 L 109 291.15625 Z M 109 84.15625 " clip-rule="nonzero"/></clipPath><clipPath id="3cdf3028d1"><path d="M 229 202 L 237.460938 202 L 237.460938 211 L 229 211 Z M 229 202 " clip-rule="nonzero"/></clipPath><clipPath id="c6a2b23f45"><path d="M 231 190 L 237.460938 190 L 237.460938 199 L 231 199 Z M 231 190 " clip-rule="nonzero"/></clipPath><clipPath id="33c9c60932"><path d="M 172 169.25 L 232 169.25 L 232 252.5 L 172 252.5 Z M 172 169.25 " clip-rule="nonzero"/></clipPath><clipPath id="37979a7351"><path d="M 137.710938 202 L 146 202 L 146 211 L 137.710938 211 Z M 137.710938 202 " clip-rule="nonzero"/></clipPath><clipPath id="84d925641f"><path d="M 137.710938 190 L 144 190 L 144 199 L 137.710938 199 Z M 137.710938 190 " clip-rule="nonzero"/></clipPath><clipPath id="6945a9fc50"><path d="M 143 169.25 L 203 169.25 L 203 252.5 L 143 252.5 Z M 143 169.25 " clip-rule="nonzero"/></clipPath><clipPath id="0ea90cfc92"><path d="M 162.011719 190 L 213 190 L 213 217.480469 L 162.011719 217.480469 Z M 162.011719 190 " clip-rule="nonzero"/></clipPath><clipPath id="94d2558ac1"><path d="M 165 184.480469 L 210 184.480469 L 210 215 L 165 215 Z M 165 184.480469 " clip-rule="nonzero"/></clipPath><clipPath id="62d47d548d"><path d="M 182 101.960938 L 194 101.960938 L 194 113 L 182 113 Z M 182 101.960938 " clip-rule="nonzero"/></clipPath><clipPath id="ffcaf37487"><path d="M 194 106 L 203 106 L 203 114.710938 L 194 114.710938 Z M 194 106 " clip-rule="nonzero"/></clipPath><clipPath id="9bbe2edfc9"><path d="M 172.253906 106 L 181 106 L 181 114.710938 L 172.253906 114.710938 Z M 172.253906 106 " clip-rule="nonzero"/></clipPath></defs><g clip-path="url(#9638989616)"><path fill="#13325b" d="M 265.300781 138.203125 C 265.214844 131.363281 264.949219 125.722656 264.683594 121.859375 C 264.640625 120.882812 263.796875 120.085938 262.824219 120.085938 C 257.734375 119.949219 253.089844 117.90625 249.550781 114.664062 C 246.007812 111.378906 243.574219 106.894531 242.867188 101.832031 L 242.824219 101.652344 C 242.601562 100.722656 242.46875 99.699219 242.425781 98.632812 C 242.335938 97.613281 241.496094 96.8125 240.433594 96.855469 C 239.503906 96.902344 238.53125 96.945312 237.644531 96.945312 C 235.566406 96.945312 232.558594 96.234375 229.015625 95.035156 C 223.707031 93.304688 217.203125 90.59375 210.078125 88.332031 C 202.953125 86.019531 195.210938 84.15625 187.332031 84.15625 C 176.847656 84.15625 166.535156 87.441406 157.683594 90.640625 C 153.261719 92.238281 149.1875 93.835938 145.648438 94.992188 C 142.109375 96.148438 139.101562 96.902344 137.019531 96.902344 C 136.089844 96.902344 135.160156 96.855469 134.234375 96.8125 C 133.214844 96.769531 132.328125 97.566406 132.242188 98.589844 C 132.152344 99.65625 132.0625 100.675781 131.84375 101.609375 L 131.796875 101.785156 C 131.089844 106.851562 128.65625 111.378906 125.117188 114.621094 C 121.578125 117.90625 116.929688 119.90625 111.839844 120.039062 C 110.867188 120.085938 110.070312 120.839844 109.984375 121.816406 C 109.71875 125.679688 109.453125 131.320312 109.363281 138.160156 C 109.230469 147.351562 109.007812 156.722656 109.007812 166.050781 C 109.007812 186.390625 110.027344 206.507812 115.515625 224.273438 C 118.257812 233.15625 122.109375 241.414062 127.550781 248.789062 C 132.949219 256.160156 139.941406 262.597656 148.835938 267.75 C 163.347656 276.1875 172.730469 281.917969 178.4375 285.558594 C 181.316406 287.378906 183.261719 288.667969 184.5 289.511719 C 185.121094 289.910156 185.5625 290.222656 185.828125 290.402344 C 185.960938 290.488281 186.050781 290.578125 186.136719 290.621094 L 186.226562 290.667969 C 186.890625 291.15625 187.820312 291.15625 188.484375 290.667969 C 188.925781 290.355469 197.6875 284.09375 225.832031 267.75 C 234.726562 262.597656 241.71875 256.160156 247.117188 248.789062 C 255.257812 237.730469 259.859375 224.628906 262.46875 210.503906 C 265.082031 196.382812 265.65625 181.238281 265.65625 166.003906 C 265.65625 156.722656 265.433594 147.351562 265.300781 138.203125 Z M 255.523438 223.117188 C 252.867188 231.6875 249.195312 239.550781 244.0625 246.523438 C 238.929688 253.496094 232.378906 259.535156 223.929688 264.421875 C 200.519531 278.011719 190.429688 284.671875 187.332031 286.757812 C 184.234375 284.628906 174.148438 277.964844 150.738281 264.421875 C 142.285156 259.492188 135.738281 253.449219 130.605469 246.523438 C 122.90625 236.085938 118.480469 223.5625 115.957031 209.839844 C 113.433594 196.117188 112.859375 181.195312 112.859375 166.050781 C 112.859375 156.8125 113.082031 147.441406 113.214844 138.25 C 113.300781 132.386719 113.523438 127.457031 113.746094 123.769531 C 119.054688 123.238281 123.878906 120.929688 127.683594 117.464844 C 131.84375 113.601562 134.71875 108.359375 135.558594 102.363281 C 135.691406 101.832031 135.78125 101.253906 135.871094 100.675781 C 136.269531 100.675781 136.621094 100.675781 137.019531 100.675781 C 139.898438 100.675781 143.171875 99.789062 146.84375 98.589844 C 152.375 96.769531 158.835938 94.105469 165.738281 91.882812 C 172.6875 89.664062 180.074219 87.929688 187.332031 87.929688 C 197.023438 87.929688 206.9375 90.996094 215.699219 94.191406 C 220.078125 95.792969 224.148438 97.34375 227.867188 98.589844 C 231.539062 99.789062 234.8125 100.675781 237.691406 100.675781 C 238.089844 100.675781 238.488281 100.675781 238.839844 100.675781 C 238.929688 101.253906 239.019531 101.785156 239.152344 102.363281 C 239.992188 108.316406 242.867188 113.601562 247.027344 117.464844 C 250.789062 120.929688 255.65625 123.238281 261.011719 123.769531 C 261.230469 127.457031 261.453125 132.386719 261.542969 138.25 C 261.675781 147.441406 261.894531 156.769531 261.894531 166.050781 C 261.851562 186.210938 260.789062 206.019531 255.523438 223.117188 Z M 255.523438 223.117188 " fill-opacity="1" fill-rule="nonzero"/></g><path fill="#9f7944" d="M 205.253906 237.09375 C 206.402344 234.074219 204.347656 231.476562 204.347656 231.476562 C 204.347656 231.476562 201.261719 233.5 200.042969 236.308594 C 198.824219 239.121094 200.054688 241.992188 200.054688 241.992188 C 200.054688 241.992188 204.113281 240.113281 205.253906 237.09375 " fill-opacity="1" fill-rule="nonzero"/><path fill="#9f7944" d="M 220.3125 223.234375 C 220.179688 220.21875 217.5 218.726562 217.5 218.726562 C 217.5 218.726562 215.566406 221.605469 215.570312 224.484375 C 215.574219 227.359375 217.71875 229.371094 217.71875 229.371094 C 217.71875 229.371094 220.445312 226.246094 220.3125 223.234375 " fill-opacity="1" fill-rule="nonzero"/><path fill="#9f7944" d="M 207.941406 241.699219 C 204.585938 241.453125 200.644531 243.402344 200.644531 243.402344 C 200.644531 243.402344 201.703125 246.511719 205.140625 247.011719 C 208.578125 247.507812 212.945312 244.710938 212.945312 244.710938 C 212.945312 244.710938 211.296875 241.945312 207.941406 241.699219 " fill-opacity="1" fill-rule="nonzero"/><path fill="#9f7944" d="M 216.765625 234.6875 C 213.554688 235.109375 210.25 237.722656 210.25 237.722656 C 210.25 237.722656 211.875 240.472656 215.203125 240.257812 C 218.53125 240.042969 222.082031 236.539062 222.082031 236.539062 C 222.082031 236.539062 219.972656 234.265625 216.765625 234.6875 " fill-opacity="1" fill-rule="nonzero"/><path fill="#9f7944" d="M 224.011719 225.9375 C 221.070312 226.984375 218.492188 230.105469 218.492188 230.105469 C 218.492188 230.105469 220.582031 232.355469 223.667969 231.46875 C 226.753906 230.582031 229.386719 226.578125 229.386719 226.578125 C 229.386719 226.578125 226.949219 224.890625 224.011719 225.9375 " fill-opacity="1" fill-rule="nonzero"/><path fill="#9f7944" d="M 229.347656 215.769531 C 226.800781 217.363281 225.003906 220.820312 225.003906 220.820312 C 225.003906 220.820312 227.425781 222.480469 230.140625 220.996094 C 232.859375 219.515625 234.523438 215.230469 234.523438 215.230469 C 234.523438 215.230469 231.902344 214.179688 229.347656 215.769531 " fill-opacity="1" fill-rule="nonzero"/><g clip-path="url(#3cdf3028d1)"><path fill="#9f7944" d="M 232.484375 204.597656 C 230.421875 206.628906 229.445312 210.238281 229.445312 210.238281 C 229.445312 210.238281 232.039062 211.257812 234.273438 209.285156 C 236.507812 207.308594 237.195312 202.976562 237.195312 202.976562 C 237.195312 202.976562 234.542969 202.5625 232.484375 204.597656 " fill-opacity="1" fill-rule="nonzero"/></g><g clip-path="url(#c6a2b23f45)"><path fill="#9f7944" d="M 233.1875 192.875 C 231.695312 195.222656 231.527344 198.800781 231.527344 198.800781 C 231.527344 198.800781 234.140625 199.167969 235.800781 196.835938 C 237.457031 194.507812 237.207031 190.328125 237.207031 190.328125 C 237.207031 190.328125 234.679688 190.527344 233.1875 192.875 " fill-opacity="1" fill-rule="nonzero"/></g><path fill="#9f7944" d="M 234.546875 184.230469 C 235.574219 181.6875 234.472656 177.855469 234.472656 177.855469 C 234.472656 177.855469 232.199219 178.589844 231.324219 181.113281 C 230.445312 183.628906 231.042969 187.015625 231.042969 187.015625 C 231.042969 187.015625 233.515625 186.773438 234.546875 184.230469 " fill-opacity="1" fill-rule="nonzero"/><g clip-path="url(#33c9c60932)"><path fill="#9f7944" d="M 218.949219 229.460938 C 223.445312 222.929688 226.683594 216.519531 228.675781 209.976562 C 228.820312 210.035156 228.910156 210.066406 228.910156 210.066406 C 228.910156 210.066406 229.226562 209 229.332031 207.628906 C 230.085938 204.699219 230.59375 201.734375 230.851562 198.71875 C 231.082031 198.761719 231.222656 198.773438 231.222656 198.773438 C 231.222656 198.773438 231.324219 197.359375 231.015625 195.78125 C 231.109375 192.933594 230.980469 190.027344 230.632812 187.050781 C 230.859375 187.042969 230.992188 187.019531 230.992188 187.019531 C 230.992188 187.019531 230.8125 185.835938 230.285156 184.523438 C 230.027344 182.855469 229.699219 181.167969 229.308594 179.453125 C 229.351562 179.484375 229.382812 179.507812 229.382812 179.507812 C 229.382812 179.507812 230.363281 176.523438 229.148438 173.585938 C 227.9375 170.65625 225.148438 169.253906 225.148438 169.253906 C 225.148438 169.253906 224.816406 172.273438 225.941406 175.011719 C 226.941406 177.449219 228.875 179.097656 229.296875 179.4375 C 229.632812 181.03125 229.921875 182.617188 230.152344 184.195312 C 229.773438 183.347656 229.253906 182.480469 228.535156 181.875 C 226.609375 180.253906 224.28125 181.101562 224.28125 181.101562 C 224.28125 181.101562 225.046875 184.117188 226.839844 185.757812 C 228.136719 186.945312 229.730469 187.078125 230.511719 187.054688 C 230.792969 189.75 230.910156 192.421875 230.847656 195.066406 C 230.644531 194.328125 230.335938 193.59375 229.871094 192.996094 C 228.25 190.910156 225.636719 191.242188 225.636719 191.242188 C 225.636719 191.242188 225.738281 194.429688 227.214844 196.503906 C 228.253906 197.96875 229.820312 198.496094 230.652344 198.679688 C 230.421875 201.386719 229.996094 204.058594 229.367188 206.695312 C 229.363281 205.75 229.222656 204.746094 228.804688 203.882812 C 227.59375 201.390625 224.820312 201.140625 224.820312 201.140625 C 224.820312 201.140625 224.234375 204.363281 225.296875 206.804688 C 226.09375 208.636719 227.730469 209.554688 228.496094 209.898438 C 227.660156 212.632812 226.589844 215.328125 225.28125 217.972656 C 225.625 216.804688 225.855469 215.378906 225.53125 214.09375 C 224.824219 211.285156 222.023438 210.414062 222.023438 210.414062 C 222.023438 210.414062 220.753906 213.535156 221.316406 216.25 C 221.78125 218.472656 223.484375 219.835938 224.089844 220.257812 C 222.46875 223.183594 220.542969 226.050781 218.285156 228.851562 C 215.734375 231.492188 213.152344 233.789062 210.414062 235.871094 C 211.46875 234.882812 213.117188 233.050781 213.445312 230.984375 C 213.941406 227.898438 211.511719 225.816406 211.511719 225.816406 C 211.511719 225.816406 208.96875 228.324219 208.371094 231.238281 C 207.824219 233.894531 209.222656 236.207031 209.46875 236.585938 C 207.636719 237.925781 205.722656 239.179688 203.6875 240.378906 C 201.070312 241.769531 198.425781 242.886719 195.851562 243.75 C 193.238281 244.640625 190.730469 245.445312 188.386719 246.148438 C 183.703125 247.554688 179.617188 248.582031 176.789062 249.527344 C 175.367188 249.992188 174.28125 250.449219 173.574219 250.796875 C 173.222656 250.976562 172.957031 251.113281 172.789062 251.21875 C 172.621094 251.324219 172.53125 251.378906 172.53125 251.378906 C 173.363281 251.832031 173.785156 252.058594 174.640625 252.496094 C 174.640625 252.496094 174.703125 252.453125 174.820312 252.375 C 174.933594 252.292969 175.125 252.179688 175.382812 252.03125 C 175.90625 251.746094 176.765625 251.339844 178.007812 250.898438 C 180.46875 249.992188 184.378906 248.925781 188.960938 247.480469 C 191.25 246.753906 193.699219 245.933594 196.277344 245.015625 C 198.902344 244.09375 201.585938 242.917969 204.238281 241.460938 C 209.777344 238.085938 214.414062 234.320312 218.949219 229.460938 " fill-opacity="1" fill-rule="nonzero"/></g><path fill="#9f7944" d="M 169.914062 237.09375 C 168.769531 234.074219 170.820312 231.476562 170.820312 231.476562 C 170.820312 231.476562 173.90625 233.5 175.128906 236.308594 C 176.347656 239.121094 175.117188 241.992188 175.117188 241.992188 C 175.117188 241.992188 171.058594 240.113281 169.914062 237.09375 " fill-opacity="1" fill-rule="nonzero"/><path fill="#9f7944" d="M 154.859375 223.234375 C 154.988281 220.21875 157.671875 218.726562 157.671875 218.726562 C 157.671875 218.726562 159.605469 221.605469 159.601562 224.484375 C 159.597656 227.359375 157.453125 229.371094 157.453125 229.371094 C 157.453125 229.371094 154.726562 226.246094 154.859375 223.234375 " fill-opacity="1" fill-rule="nonzero"/><path fill="#9f7944" d="M 167.230469 241.699219 C 170.585938 241.453125 174.523438 243.402344 174.523438 243.402344 C 174.523438 243.402344 173.46875 246.511719 170.027344 247.011719 C 166.59375 247.507812 162.222656 244.714844 162.222656 244.714844 C 162.222656 244.714844 163.875 241.945312 167.230469 241.699219 " fill-opacity="1" fill-rule="nonzero"/><path fill="#9f7944" d="M 158.40625 234.6875 C 161.613281 235.109375 164.917969 237.722656 164.917969 237.722656 C 164.917969 237.722656 163.292969 240.472656 159.964844 240.257812 C 156.636719 240.042969 153.089844 236.539062 153.089844 236.539062 C 153.089844 236.539062 155.195312 234.265625 158.40625 234.6875 " fill-opacity="1" fill-rule="nonzero"/><path fill="#9f7944" d="M 151.160156 225.9375 C 154.097656 226.984375 156.675781 230.105469 156.675781 230.105469 C 156.675781 230.105469 154.585938 232.355469 151.5 231.46875 C 148.414062 230.582031 145.78125 226.578125 145.78125 226.578125 C 145.78125 226.578125 148.21875 224.890625 151.160156 225.9375 " fill-opacity="1" fill-rule="nonzero"/><path fill="#9f7944" d="M 145.820312 215.769531 C 148.371094 217.363281 150.164062 220.820312 150.164062 220.820312 C 150.164062 220.820312 147.746094 222.480469 145.03125 220.996094 C 142.3125 219.515625 140.648438 215.230469 140.648438 215.230469 C 140.648438 215.230469 143.269531 214.179688 145.820312 215.769531 " fill-opacity="1" fill-rule="nonzero"/><g clip-path="url(#37979a7351)"><path fill="#9f7944" d="M 142.6875 204.597656 C 144.746094 206.628906 145.726562 210.238281 145.726562 210.238281 C 145.726562 210.238281 143.132812 211.253906 140.898438 209.28125 C 138.664062 207.308594 137.976562 202.972656 137.976562 202.972656 C 137.976562 202.972656 140.625 202.5625 142.6875 204.597656 " fill-opacity="1" fill-rule="nonzero"/></g><g clip-path="url(#84d925641f)"><path fill="#9f7944" d="M 141.980469 192.875 C 143.476562 195.222656 143.640625 198.800781 143.640625 198.800781 C 143.640625 198.800781 141.027344 199.167969 139.371094 196.835938 C 137.710938 194.507812 137.960938 190.328125 137.960938 190.328125 C 137.960938 190.328125 140.488281 190.527344 141.980469 192.875 " fill-opacity="1" fill-rule="nonzero"/></g><path fill="#9f7944" d="M 140.625 184.230469 C 139.597656 181.6875 140.699219 177.855469 140.699219 177.855469 C 140.699219 177.855469 142.972656 178.589844 143.847656 181.113281 C 144.722656 183.628906 144.125 187.015625 144.125 187.015625 C 144.125 187.015625 141.652344 186.773438 140.625 184.230469 " fill-opacity="1" fill-rule="nonzero"/><g clip-path="url(#6945a9fc50)"><path fill="#9f7944" d="M 156.21875 229.460938 C 151.726562 222.929688 148.484375 216.519531 146.496094 209.976562 C 146.347656 210.035156 146.261719 210.0625 146.261719 210.0625 C 146.261719 210.0625 145.945312 209 145.835938 207.628906 C 145.085938 204.699219 144.574219 201.734375 144.316406 198.71875 C 144.089844 198.761719 143.945312 198.773438 143.945312 198.773438 C 143.945312 198.773438 143.84375 197.359375 144.152344 195.78125 C 144.0625 192.929688 144.1875 190.027344 144.535156 187.050781 C 144.308594 187.039062 144.175781 187.019531 144.175781 187.019531 C 144.175781 187.019531 144.355469 185.832031 144.882812 184.523438 C 145.144531 182.855469 145.46875 181.164062 145.859375 179.449219 C 145.820312 179.484375 145.789062 179.507812 145.789062 179.507812 C 145.789062 179.507812 144.808594 176.523438 146.019531 173.585938 C 147.234375 170.65625 150.023438 169.253906 150.023438 169.253906 C 150.023438 169.253906 150.355469 172.273438 149.230469 175.011719 C 148.230469 177.445312 146.296875 179.097656 145.875 179.4375 C 145.535156 181.03125 145.25 182.617188 145.019531 184.195312 C 145.394531 183.34375 145.917969 182.480469 146.632812 181.875 C 148.5625 180.25 150.890625 181.101562 150.890625 181.101562 C 150.890625 181.101562 150.121094 184.113281 148.332031 185.757812 C 147.03125 186.945312 145.441406 187.074219 144.65625 187.054688 C 144.375 189.75 144.261719 192.421875 144.320312 195.066406 C 144.527344 194.328125 144.832031 193.59375 145.296875 192.996094 C 146.917969 190.910156 149.535156 191.242188 149.535156 191.242188 C 149.535156 191.242188 149.429688 194.429688 147.953125 196.503906 C 146.914062 197.96875 145.351562 198.492188 144.519531 198.679688 C 144.75 201.382812 145.171875 204.058594 145.800781 206.695312 C 145.808594 205.75 145.945312 204.742188 146.367188 203.882812 C 147.578125 201.390625 150.351562 201.136719 150.351562 201.136719 C 150.351562 201.136719 150.9375 204.363281 149.875 206.804688 C 149.078125 208.636719 147.441406 209.554688 146.675781 209.898438 C 147.511719 212.628906 148.578125 215.324219 149.886719 217.972656 C 149.542969 216.800781 149.316406 215.378906 149.636719 214.09375 C 150.34375 211.285156 153.144531 210.414062 153.144531 210.414062 C 153.144531 210.414062 154.417969 213.535156 153.855469 216.25 C 153.390625 218.472656 151.683594 219.835938 151.082031 220.257812 C 152.703125 223.183594 154.628906 226.046875 156.886719 228.851562 C 159.4375 231.492188 162.015625 233.789062 164.757812 235.871094 C 163.703125 234.882812 162.054688 233.050781 161.726562 230.984375 C 161.230469 227.898438 163.660156 225.816406 163.660156 225.816406 C 163.660156 225.816406 166.199219 228.324219 166.796875 231.238281 C 167.34375 233.894531 165.945312 236.207031 165.699219 236.585938 C 167.535156 237.925781 169.445312 239.179688 171.480469 240.378906 C 174.097656 241.769531 176.742188 242.886719 179.320312 243.75 C 181.933594 244.640625 184.441406 245.445312 186.785156 246.148438 C 191.46875 247.554688 195.554688 248.582031 198.382812 249.527344 C 199.800781 249.992188 200.890625 250.449219 201.597656 250.796875 C 201.945312 250.976562 202.210938 251.113281 202.378906 251.21875 C 202.550781 251.324219 202.640625 251.378906 202.640625 251.378906 C 201.808594 251.832031 201.382812 252.058594 200.527344 252.492188 C 200.527344 252.492188 200.46875 252.453125 200.347656 252.375 C 200.238281 252.292969 200.046875 252.179688 199.789062 252.03125 C 199.261719 251.746094 198.40625 251.339844 197.160156 250.898438 C 194.699219 249.992188 190.789062 248.925781 186.210938 247.480469 C 183.921875 246.753906 181.472656 245.933594 178.890625 245.015625 C 176.269531 244.09375 173.582031 242.914062 170.929688 241.460938 C 165.390625 238.085938 160.757812 234.320312 156.21875 229.460938 " fill-opacity="1" fill-rule="nonzero"/></g><g clip-path="url(#0ea90cfc92)"><path fill="#13325b" d="M 209.960938 190.183594 L 209.949219 190.269531 L 208.050781 211.273438 L 207.96875 212.230469 L 207.007812 212.105469 L 206.292969 212.011719 C 204.863281 211.828125 203.453125 211.730469 202.109375 211.730469 C 195.621094 211.730469 191.675781 213.917969 189.902344 215.21875 L 187.511719 215.398438 L 187.503906 215.398438 L 185.113281 215.21875 C 183.339844 213.917969 179.394531 211.730469 172.90625 211.730469 C 171.5625 211.730469 170.152344 211.828125 168.722656 212.011719 L 168.007812 212.105469 L 167.046875 212.230469 L 166.964844 211.273438 L 165.066406 190.269531 L 165.054688 190.183594 L 162.027344 190.183594 L 165.117188 213.972656 L 185.472656 217.480469 L 189.542969 217.480469 L 209.902344 213.972656 L 212.988281 190.183594 L 209.960938 190.183594 " fill-opacity="1" fill-rule="nonzero"/></g><g clip-path="url(#94d2558ac1)"><path fill="#13325b" d="M 168.515625 188.921875 L 168.632812 190.125 L 170.1875 206.464844 L 170.722656 206.546875 C 170.820312 206.558594 178.335938 207.710938 183.40625 211.539062 C 180.972656 210.410156 177.527344 209.417969 172.949219 209.417969 C 171.75 209.417969 170.488281 209.488281 169.140625 209.632812 L 167.386719 190.183594 L 167.28125 189.03125 C 167.710938 188.984375 168.117188 188.953125 168.515625 188.921875 Z M 181.117188 188.871094 C 184.484375 190.644531 186.269531 192.683594 186.789062 193.34375 L 186.789062 212.828125 C 182.414062 207.527344 173.742188 205.671875 171.464844 205.265625 L 170.015625 189.984375 L 169.625 185.914062 C 174.613281 186.152344 178.386719 187.425781 181.117188 188.871094 Z M 188.226562 193.34375 C 188.746094 192.683594 190.53125 190.644531 193.902344 188.871094 C 196.628906 187.425781 200.402344 186.152344 205.390625 185.914062 L 205 189.984375 L 203.550781 205.265625 C 201.273438 205.671875 192.601562 207.527344 188.226562 212.828125 Z M 206.386719 190.125 L 206.5 188.921875 C 206.898438 188.953125 207.304688 188.984375 207.734375 189.03125 L 207.628906 190.183594 L 205.875 209.632812 C 204.527344 209.488281 203.265625 209.417969 202.066406 209.417969 C 197.488281 209.417969 194.042969 210.410156 191.609375 211.539062 C 196.679688 207.710938 204.195312 206.558594 204.292969 206.546875 L 204.828125 206.464844 Z M 167.886719 211.191406 L 168.605469 211.101562 C 173.519531 210.453125 177.367188 210.964844 180.246094 211.835938 C 180.527344 211.925781 180.800781 212.011719 181.066406 212.105469 C 181.328125 212.199219 181.582031 212.296875 181.828125 212.390625 C 182.074219 212.488281 182.308594 212.585938 182.539062 212.6875 C 183.671875 213.191406 184.582031 213.726562 185.273438 214.199219 C 185.410156 214.296875 185.542969 214.386719 185.660156 214.476562 L 189.355469 214.476562 C 189.472656 214.386719 189.605469 214.296875 189.742188 214.199219 C 190.4375 213.726562 191.34375 213.191406 192.476562 212.6875 C 192.707031 212.585938 192.941406 212.488281 193.1875 212.390625 C 193.433594 212.296875 193.6875 212.199219 193.949219 212.105469 C 194.214844 212.011719 194.488281 211.925781 194.769531 211.835938 C 197.648438 210.964844 201.496094 210.453125 206.414062 211.101562 L 207.128906 211.191406 L 209.027344 190.183594 L 209.242188 187.804688 L 208.570312 187.730469 C 207.894531 187.648438 207.246094 187.585938 206.632812 187.542969 L 206.921875 184.480469 L 206.140625 184.5 C 199.304688 184.675781 194.570312 186.648438 191.5 188.625 C 189.488281 189.921875 188.195312 191.222656 187.511719 192.023438 L 187.507812 192.019531 L 187.503906 192.023438 C 186.820312 191.222656 185.527344 189.921875 183.515625 188.625 C 180.449219 186.648438 175.710938 184.675781 168.878906 184.5 L 168.09375 184.480469 L 168.382812 187.542969 C 167.769531 187.585938 167.121094 187.648438 166.445312 187.730469 L 165.773438 187.804688 L 165.988281 190.183594 L 167.886719 211.191406 " fill-opacity="1" fill-rule="nonzero"/></g><g fill="#9f7944" fill-opacity="1"><g transform="translate(144.238883, 137.400929)"><g><path d="M 14.09375 -9.71875 L 13.96875 -9.71875 C 13.726562 -9.71875 13.488281 -9.644531 13.25 -9.5 C 13.007812 -9.363281 12.84375 -9.160156 12.75 -8.890625 L 10.375 -1.3125 C 10.21875 -0.789062 10.140625 -0.3125 10.140625 0.125 C 10.140625 0.175781 10.140625 0.21875 10.140625 0.25 L 10 0.25 L 6.921875 -6.546875 L 4.703125 -1.3125 C 4.484375 -0.769531 4.367188 -0.25 4.359375 0.25 L 4.21875 0.25 L 0.859375 -8.890625 C 0.734375 -9.171875 0.554688 -9.378906 0.328125 -9.515625 C 0.109375 -9.648438 -0.113281 -9.71875 -0.34375 -9.71875 L -0.46875 -9.71875 L -0.46875 -9.859375 L 3.828125 -9.859375 L 3.828125 -9.71875 L 3.703125 -9.71875 C 3.503906 -9.71875 3.351562 -9.648438 3.25 -9.515625 C 3.15625 -9.390625 3.109375 -9.269531 3.109375 -9.15625 C 3.109375 -9.050781 3.128906 -8.945312 3.171875 -8.84375 L 4.90625 -3.9375 L 7.453125 -10.078125 L 7.578125 -10.0625 L 10.375 -3.890625 L 11.78125 -8.84375 C 11.8125 -8.945312 11.828125 -9.050781 11.828125 -9.15625 C 11.828125 -9.269531 11.78125 -9.390625 11.6875 -9.515625 C 11.601562 -9.648438 11.457031 -9.71875 11.25 -9.71875 L 11.125 -9.71875 L 11.125 -9.859375 L 14.09375 -9.859375 Z M 14.09375 -9.71875 "/></g></g></g><g fill="#9f7944" fill-opacity="1"><g transform="translate(158.89078, 137.400929)"><g><path d="M 10.390625 -0.140625 L 10.515625 -0.140625 L 10.515625 0 L 6.03125 0 L 6.03125 -0.140625 L 6.15625 -0.140625 C 6.363281 -0.140625 6.515625 -0.203125 6.609375 -0.328125 C 6.710938 -0.453125 6.765625 -0.570312 6.765625 -0.6875 C 6.765625 -0.800781 6.738281 -0.914062 6.6875 -1.03125 L 6 -2.765625 L 2.703125 -2.765625 L 1.96875 -1.03125 C 1.925781 -0.90625 1.90625 -0.785156 1.90625 -0.671875 C 1.90625 -0.566406 1.957031 -0.453125 2.0625 -0.328125 C 2.164062 -0.203125 2.316406 -0.140625 2.515625 -0.140625 L 2.640625 -0.140625 L 2.640625 0 L -0.375 0 L -0.375 -0.140625 L -0.25 -0.140625 C -0.03125 -0.140625 0.179688 -0.203125 0.390625 -0.328125 C 0.609375 -0.460938 0.789062 -0.660156 0.9375 -0.921875 L 4.1875 -8.296875 C 4.625 -9.222656 4.859375 -9.835938 4.890625 -10.140625 L 5.015625 -10.140625 L 9.1875 -0.953125 C 9.332031 -0.679688 9.507812 -0.476562 9.71875 -0.34375 C 9.9375 -0.207031 10.160156 -0.140625 10.390625 -0.140625 Z M 2.9375 -3.34375 L 5.765625 -3.34375 L 4.390625 -6.8125 Z M 2.9375 -3.34375 "/></g></g></g><g fill="#9f7944" fill-opacity="1"><g transform="translate(169.953741, 137.400929)"><g><path d="M 4.484375 -9.234375 L 3.875 -9.234375 C 3.851562 -9.234375 3.835938 -9.234375 3.828125 -9.234375 L 3.828125 -1.03125 C 3.835938 -0.78125 3.925781 -0.566406 4.09375 -0.390625 C 4.269531 -0.222656 4.484375 -0.140625 4.734375 -0.140625 L 4.90625 -0.140625 L 4.90625 0 L 0.640625 0 L 0.640625 -0.140625 L 0.8125 -0.140625 C 1.15625 -0.140625 1.414062 -0.285156 1.59375 -0.578125 C 1.664062 -0.710938 1.707031 -0.859375 1.71875 -1.015625 L 1.71875 -8.828125 C 1.707031 -9.066406 1.613281 -9.273438 1.4375 -9.453125 C 1.269531 -9.628906 1.0625 -9.71875 0.8125 -9.71875 L 0.640625 -9.71875 L 0.640625 -9.859375 L 5.46875 -9.859375 C 6.375 -9.859375 7.140625 -9.660156 7.765625 -9.265625 C 8.085938 -9.066406 8.34375 -8.789062 8.53125 -8.4375 C 8.71875 -8.082031 8.8125 -7.617188 8.8125 -7.046875 C 8.8125 -6.484375 8.613281 -5.9375 8.21875 -5.40625 C 7.820312 -4.882812 7.25 -4.585938 6.5 -4.515625 C 7.050781 -4.335938 7.53125 -3.925781 7.9375 -3.28125 C 8.945312 -1.65625 9.695312 -0.6875 10.1875 -0.375 C 10.4375 -0.226562 10.742188 -0.148438 11.109375 -0.140625 L 11.109375 0 L 9.734375 0 C 8.910156 0 8.226562 -0.101562 7.6875 -0.3125 C 7.15625 -0.53125 6.734375 -0.914062 6.421875 -1.46875 C 6.242188 -1.769531 5.851562 -2.570312 5.25 -3.875 C 4.988281 -4.445312 4.671875 -4.757812 4.296875 -4.8125 L 4.296875 -4.953125 L 4.734375 -4.953125 C 5.148438 -4.953125 5.519531 -5.078125 5.84375 -5.328125 C 6.164062 -5.585938 6.382812 -6.003906 6.5 -6.578125 C 6.539062 -6.773438 6.5625 -6.929688 6.5625 -7.046875 C 6.5625 -7.804688 6.40625 -8.359375 6.09375 -8.703125 C 5.78125 -9.046875 5.382812 -9.222656 4.90625 -9.234375 C 4.8125 -9.234375 4.671875 -9.234375 4.484375 -9.234375 Z M 4.484375 -9.234375 "/></g></g></g><g fill="#9f7944" fill-opacity="1"><g transform="translate(181.453007, 137.400929)"><g><path d="M 5.703125 -9.859375 C 7.359375 -9.859375 8.671875 -9.414062 9.640625 -8.53125 C 10.609375 -7.644531 11.09375 -6.441406 11.09375 -4.921875 C 11.09375 -3.398438 10.609375 -2.195312 9.640625 -1.3125 C 8.671875 -0.4375 7.359375 0 5.703125 0 L 0.59375 0 L 0.59375 -0.140625 L 0.78125 -0.140625 C 1.019531 -0.140625 1.222656 -0.222656 1.390625 -0.390625 C 1.566406 -0.566406 1.660156 -0.78125 1.671875 -1.03125 L 1.671875 -8.90625 C 1.671875 -9.132812 1.578125 -9.328125 1.390625 -9.484375 C 1.210938 -9.640625 1.007812 -9.71875 0.78125 -9.71875 L 0.59375 -9.71875 L 0.59375 -9.859375 Z M 5.515625 -0.609375 C 6.191406 -0.609375 6.773438 -0.78125 7.265625 -1.125 C 7.765625 -1.46875 8.144531 -1.96875 8.40625 -2.625 C 8.664062 -3.28125 8.796875 -3.988281 8.796875 -4.75 C 8.796875 -5.519531 8.71875 -6.175781 8.5625 -6.71875 C 8.40625 -7.257812 8.1875 -7.71875 7.90625 -8.09375 C 7.332031 -8.875 6.535156 -9.265625 5.515625 -9.265625 L 3.78125 -9.265625 L 3.78125 -0.609375 Z M 5.515625 -0.609375 "/></g></g></g><g fill="#9f7944" fill-opacity="1"><g transform="translate(194.092291, 137.400929)"><g><path d="M 0.78125 -0.140625 C 1.019531 -0.140625 1.222656 -0.222656 1.390625 -0.390625 C 1.566406 -0.566406 1.660156 -0.78125 1.671875 -1.03125 L 1.671875 -8.84375 C 1.660156 -9.082031 1.566406 -9.285156 1.390625 -9.453125 C 1.222656 -9.628906 1.019531 -9.71875 0.78125 -9.71875 L 0.59375 -9.71875 L 0.59375 -9.859375 L 4.875 -9.859375 L 4.859375 -9.71875 L 4.6875 -9.71875 C 4.445312 -9.71875 4.234375 -9.628906 4.046875 -9.453125 C 3.867188 -9.285156 3.78125 -9.082031 3.78125 -8.84375 L 3.78125 -1.03125 C 3.78125 -0.78125 3.867188 -0.566406 4.046875 -0.390625 C 4.234375 -0.222656 4.445312 -0.140625 4.6875 -0.140625 L 4.859375 -0.140625 L 4.875 0 L 0.59375 0 L 0.59375 -0.140625 Z M 0.78125 -0.140625 "/></g></g></g><g fill="#9f7944" fill-opacity="1"><g transform="translate(200.510749, 137.400929)"><g><path d="M 0.78125 -0.140625 C 1.019531 -0.140625 1.222656 -0.222656 1.390625 -0.390625 C 1.566406 -0.566406 1.660156 -0.78125 1.671875 -1.03125 L 1.671875 -8.875 C 1.648438 -9.113281 1.582031 -9.289062 1.46875 -9.40625 C 1.238281 -9.613281 1.007812 -9.71875 0.78125 -9.71875 L 0.59375 -9.71875 L 0.59375 -9.859375 L 5.984375 -9.859375 C 6.441406 -9.859375 6.820312 -9.890625 7.125 -9.953125 C 7.425781 -10.023438 7.609375 -10.078125 7.671875 -10.109375 L 7.671875 -7.640625 L 7.53125 -7.65625 L 7.53125 -7.8125 C 7.53125 -8.394531 7.316406 -8.804688 6.890625 -9.046875 C 6.679688 -9.171875 6.4375 -9.238281 6.15625 -9.25 L 3.78125 -9.25 L 3.78125 -5.15625 L 5.640625 -5.15625 C 5.992188 -5.164062 6.28125 -5.285156 6.5 -5.515625 C 6.726562 -5.742188 6.84375 -6.023438 6.84375 -6.359375 L 6.84375 -6.484375 L 6.984375 -6.484375 L 6.984375 -3.234375 L 6.84375 -3.234375 L 6.84375 -3.34375 C 6.84375 -3.695312 6.734375 -3.984375 6.515625 -4.203125 C 6.296875 -4.429688 6.015625 -4.550781 5.671875 -4.5625 L 3.78125 -4.5625 L 3.78125 -0.609375 L 5.625 -0.609375 C 6.3125 -0.609375 6.882812 -0.800781 7.34375 -1.1875 C 7.8125 -1.582031 8.160156 -2.144531 8.390625 -2.875 L 8.53125 -2.875 L 7.890625 0 L 0.59375 0 L 0.59375 -0.140625 Z M 0.78125 -0.140625 "/></g></g></g><g fill="#9f7944" fill-opacity="1"><g transform="translate(210.377404, 137.400929)"><g><path d="M 4.484375 -9.234375 L 3.875 -9.234375 C 3.851562 -9.234375 3.835938 -9.234375 3.828125 -9.234375 L 3.828125 -1.03125 C 3.835938 -0.78125 3.925781 -0.566406 4.09375 -0.390625 C 4.269531 -0.222656 4.484375 -0.140625 4.734375 -0.140625 L 4.90625 -0.140625 L 4.90625 0 L 0.640625 0 L 0.640625 -0.140625 L 0.8125 -0.140625 C 1.15625 -0.140625 1.414062 -0.285156 1.59375 -0.578125 C 1.664062 -0.710938 1.707031 -0.859375 1.71875 -1.015625 L 1.71875 -8.828125 C 1.707031 -9.066406 1.613281 -9.273438 1.4375 -9.453125 C 1.269531 -9.628906 1.0625 -9.71875 0.8125 -9.71875 L 0.640625 -9.71875 L 0.640625 -9.859375 L 5.46875 -9.859375 C 6.375 -9.859375 7.140625 -9.660156 7.765625 -9.265625 C 8.085938 -9.066406 8.34375 -8.789062 8.53125 -8.4375 C 8.71875 -8.082031 8.8125 -7.617188 8.8125 -7.046875 C 8.8125 -6.484375 8.613281 -5.9375 8.21875 -5.40625 C 7.820312 -4.882812 7.25 -4.585938 6.5 -4.515625 C 7.050781 -4.335938 7.53125 -3.925781 7.9375 -3.28125 C 8.945312 -1.65625 9.695312 -0.6875 10.1875 -0.375 C 10.4375 -0.226562 10.742188 -0.148438 11.109375 -0.140625 L 11.109375 0 L 9.734375 0 C 8.910156 0 8.226562 -0.101562 7.6875 -0.3125 C 7.15625 -0.53125 6.734375 -0.914062 6.421875 -1.46875 C 6.242188 -1.769531 5.851562 -2.570312 5.25 -3.875 C 4.988281 -4.445312 4.671875 -4.757812 4.296875 -4.8125 L 4.296875 -4.953125 L 4.734375 -4.953125 C 5.148438 -4.953125 5.519531 -5.078125 5.84375 -5.328125 C 6.164062 -5.585938 6.382812 -6.003906 6.5 -6.578125 C 6.539062 -6.773438 6.5625 -6.929688 6.5625 -7.046875 C 6.5625 -7.804688 6.40625 -8.359375 6.09375 -8.703125 C 5.78125 -9.046875 5.382812 -9.222656 4.90625 -9.234375 C 4.8125 -9.234375 4.671875 -9.234375 4.484375 -9.234375 Z M 4.484375 -9.234375 "/></g></g></g><g fill="#9f7944" fill-opacity="1"><g transform="translate(221.876673, 137.400929)"><g><path d="M 0.78125 -0.140625 C 1.019531 -0.140625 1.222656 -0.222656 1.390625 -0.390625 C 1.566406 -0.566406 1.660156 -0.78125 1.671875 -1.03125 L 1.671875 -8.875 C 1.648438 -9.113281 1.582031 -9.289062 1.46875 -9.40625 C 1.238281 -9.613281 1.007812 -9.71875 0.78125 -9.71875 L 0.59375 -9.71875 L 0.59375 -9.859375 L 5.984375 -9.859375 C 6.441406 -9.859375 6.820312 -9.890625 7.125 -9.953125 C 7.425781 -10.023438 7.609375 -10.078125 7.671875 -10.109375 L 7.671875 -7.640625 L 7.53125 -7.65625 L 7.53125 -7.8125 C 7.53125 -8.394531 7.316406 -8.804688 6.890625 -9.046875 C 6.679688 -9.171875 6.4375 -9.238281 6.15625 -9.25 L 3.78125 -9.25 L 3.78125 -5.15625 L 5.640625 -5.15625 C 5.992188 -5.164062 6.28125 -5.285156 6.5 -5.515625 C 6.726562 -5.742188 6.84375 -6.023438 6.84375 -6.359375 L 6.84375 -6.484375 L 6.984375 -6.484375 L 6.984375 -3.234375 L 6.84375 -3.234375 L 6.84375 -3.34375 C 6.84375 -3.695312 6.734375 -3.984375 6.515625 -4.203125 C 6.296875 -4.429688 6.015625 -4.550781 5.671875 -4.5625 L 3.78125 -4.5625 L 3.78125 -0.609375 L 5.625 -0.609375 C 6.3125 -0.609375 6.882812 -0.800781 7.34375 -1.1875 C 7.8125 -1.582031 8.160156 -2.144531 8.390625 -2.875 L 8.53125 -2.875 L 7.890625 0 L 0.59375 0 L 0.59375 -0.140625 Z M 0.78125 -0.140625 "/></g></g></g><g fill="#13325b" fill-opacity="1"><g transform="translate(125.034748, 160.462317)"><g><path d="M 16.34375 -16.21875 C 16.5 -16.21875 16.660156 -16.207031 16.828125 -16.1875 L 16.828125 -16.015625 C 15.410156 -15.910156 14.390625 -15.238281 13.765625 -14 C 13.359375 -13.195312 13.15625 -12.179688 13.15625 -10.953125 L 13.15625 -4.546875 C 13.132812 -3.035156 12.648438 -1.859375 11.703125 -1.015625 C 10.753906 -0.171875 9.40625 0.25 7.65625 0.25 C 5.90625 0.25 4.507812 -0.179688 3.46875 -1.046875 C 2.425781 -1.921875 1.910156 -3.082031 1.921875 -4.53125 L 1.921875 -11.515625 C 1.921875 -11.765625 1.828125 -11.972656 1.640625 -12.140625 C 1.453125 -12.304688 1.226562 -12.390625 0.96875 -12.390625 L 0.6875 -12.390625 L 0.6875 -12.5625 L 5.859375 -12.5625 L 5.859375 -12.390625 L 5.5625 -12.390625 C 5.195312 -12.390625 4.921875 -12.242188 4.734375 -11.953125 C 4.648438 -11.828125 4.609375 -11.6875 4.609375 -11.53125 L 4.609375 -4.671875 C 4.609375 -3.398438 4.9375 -2.390625 5.59375 -1.640625 C 6.257812 -0.898438 7.128906 -0.53125 8.203125 -0.53125 C 8.210938 -0.53125 8.21875 -0.53125 8.21875 -0.53125 C 8.21875 -0.53125 8.222656 -0.53125 8.234375 -0.53125 C 9.304688 -0.53125 10.179688 -0.878906 10.859375 -1.578125 C 11.546875 -2.273438 11.890625 -3.226562 11.890625 -4.4375 L 11.890625 -10.953125 C 11.890625 -12.566406 12.316406 -13.847656 13.171875 -14.796875 C 14.023438 -15.742188 15.082031 -16.21875 16.34375 -16.21875 Z M 16.34375 -16.21875 "/></g></g></g><g fill="#13325b" fill-opacity="1"><g transform="translate(140.718935, 160.462317)"><g><path d="M 14.671875 -12.390625 C 14.367188 -12.390625 14.109375 -12.285156 13.890625 -12.078125 C 13.679688 -11.867188 13.566406 -11.613281 13.546875 -11.3125 L 13.546875 -2.046875 C 13.546875 -1.242188 13.601562 -0.566406 13.71875 -0.015625 L 13.765625 0.25 L 13.609375 0.25 L 4.546875 -8.390625 L 4.546875 -1.25 C 4.546875 -0.957031 4.648438 -0.703125 4.859375 -0.484375 C 5.078125 -0.273438 5.335938 -0.171875 5.640625 -0.171875 L 5.984375 -0.171875 L 5.984375 0 L 0.53125 0 L 0.53125 -0.171875 L 0.859375 -0.171875 C 1.171875 -0.171875 1.429688 -0.273438 1.640625 -0.484375 C 1.859375 -0.703125 1.96875 -0.96875 1.96875 -1.28125 L 1.96875 -10.59375 C 1.96875 -11.382812 1.914062 -12.039062 1.8125 -12.5625 L 1.78125 -12.84375 L 1.9375 -12.84375 L 11 -4.203125 L 11 -11.296875 C 10.988281 -11.609375 10.875 -11.867188 10.65625 -12.078125 C 10.445312 -12.285156 10.191406 -12.390625 9.890625 -12.390625 L 9.5625 -12.390625 L 9.5625 -12.5625 L 15.015625 -12.5625 L 15.015625 -12.390625 Z M 14.671875 -12.390625 "/></g></g></g><g fill="#13325b" fill-opacity="1"><g transform="translate(157.138856, 160.462317)"><g><path d="M 0.984375 -0.171875 C 1.296875 -0.171875 1.5625 -0.28125 1.78125 -0.5 C 2.007812 -0.726562 2.128906 -1 2.140625 -1.3125 L 2.140625 -11.28125 C 2.128906 -11.582031 2.007812 -11.84375 1.78125 -12.0625 C 1.5625 -12.28125 1.296875 -12.390625 0.984375 -12.390625 L 0.75 -12.390625 L 0.75 -12.5625 L 6.21875 -12.5625 L 6.1875 -12.390625 L 5.984375 -12.390625 C 5.671875 -12.390625 5.398438 -12.28125 5.171875 -12.0625 C 4.941406 -11.84375 4.828125 -11.582031 4.828125 -11.28125 L 4.828125 -1.3125 C 4.828125 -1 4.941406 -0.726562 5.171875 -0.5 C 5.398438 -0.28125 5.671875 -0.171875 5.984375 -0.171875 L 6.1875 -0.171875 L 6.21875 0 L 0.75 0 L 0.75 -0.171875 Z M 0.984375 -0.171875 "/></g></g></g><g fill="#13325b" fill-opacity="1"><g transform="translate(164.96323, 160.462317)"><g><path d="M 13.59375 -12.390625 L 13.421875 -12.390625 C 13.148438 -12.390625 12.875 -12.304688 12.59375 -12.140625 C 12.320312 -11.972656 12.097656 -11.71875 11.921875 -11.375 L 7.65625 -2 C 7.113281 -0.8125 6.820312 -0.0234375 6.78125 0.359375 L 6.625 0.359375 L 1.1875 -11.359375 C 1 -11.691406 0.769531 -11.945312 0.5 -12.125 C 0.226562 -12.300781 -0.0507812 -12.390625 -0.34375 -12.390625 L -0.484375 -12.390625 L -0.484375 -12.5625 L 5.21875 -12.5625 L 5.21875 -12.390625 L 5.078125 -12.390625 C 4.816406 -12.390625 4.625 -12.304688 4.5 -12.140625 C 4.375 -11.984375 4.3125 -11.832031 4.3125 -11.6875 C 4.3125 -11.539062 4.332031 -11.394531 4.375 -11.25 L 7.4375 -3.84375 L 10.59375 -11.25 C 10.65625 -11.40625 10.6875 -11.550781 10.6875 -11.6875 C 10.6875 -11.832031 10.617188 -11.984375 10.484375 -12.140625 C 10.359375 -12.304688 10.164062 -12.390625 9.90625 -12.390625 L 9.75 -12.390625 L 9.75 -12.5625 L 13.59375 -12.5625 Z M 13.59375 -12.390625 "/></g></g></g><g fill="#13325b" fill-opacity="1"><g transform="translate(178.90677, 160.462317)"><g><path d="M 0.984375 -0.171875 C 1.296875 -0.171875 1.5625 -0.28125 1.78125 -0.5 C 2.007812 -0.726562 2.128906 -1 2.140625 -1.3125 L 2.140625 -11.3125 C 2.097656 -11.726562 1.898438 -12.039062 1.546875 -12.25 C 1.367188 -12.34375 1.179688 -12.390625 0.984375 -12.390625 L 0.75 -12.390625 L 0.75 -12.5625 L 7.625 -12.5625 C 8 -12.5625 8.40625 -12.597656 8.84375 -12.671875 C 9.289062 -12.742188 9.601562 -12.816406 9.78125 -12.890625 L 9.78125 -9.75 L 9.609375 -9.75 L 9.609375 -9.96875 C 9.609375 -10.5 9.445312 -10.929688 9.125 -11.265625 C 8.8125 -11.597656 8.382812 -11.773438 7.84375 -11.796875 L 4.828125 -11.796875 L 4.828125 -6.578125 L 7.203125 -6.578125 C 7.640625 -6.585938 8 -6.738281 8.28125 -7.03125 C 8.570312 -7.320312 8.71875 -7.679688 8.71875 -8.109375 L 8.71875 -8.28125 L 8.90625 -8.28125 L 8.90625 -4.125 L 8.71875 -4.125 L 8.71875 -4.265625 C 8.71875 -4.867188 8.476562 -5.3125 8 -5.59375 C 7.757812 -5.726562 7.5 -5.800781 7.21875 -5.8125 L 4.828125 -5.8125 L 4.828125 -0.765625 L 7.1875 -0.765625 C 8.050781 -0.765625 8.78125 -1.015625 9.375 -1.515625 C 9.96875 -2.023438 10.410156 -2.738281 10.703125 -3.65625 L 10.875 -3.65625 L 10.046875 0 L 0.75 0 L 0.75 -0.171875 Z M 0.984375 -0.171875 "/></g></g></g><g fill="#13325b" fill-opacity="1"><g transform="translate(191.127612, 160.462317)"><g><path d="M 5.703125 -11.78125 L 4.9375 -11.78125 C 4.914062 -11.78125 4.898438 -11.78125 4.890625 -11.78125 L 4.890625 -1.3125 C 4.898438 -0.863281 5.085938 -0.535156 5.453125 -0.328125 C 5.640625 -0.222656 5.832031 -0.171875 6.03125 -0.171875 L 6.265625 -0.171875 L 6.265625 0 L 0.8125 0 L 0.8125 -0.171875 L 1.046875 -0.171875 C 1.472656 -0.171875 1.800781 -0.359375 2.03125 -0.734375 C 2.125 -0.898438 2.175781 -1.085938 2.1875 -1.296875 L 2.1875 -11.25 C 2.175781 -11.5625 2.0625 -11.828125 1.84375 -12.046875 C 1.625 -12.273438 1.359375 -12.390625 1.046875 -12.390625 L 0.8125 -12.390625 L 0.8125 -12.5625 L 6.96875 -12.5625 C 8.125 -12.5625 9.101562 -12.3125 9.90625 -11.8125 C 10.3125 -11.5625 10.632812 -11.210938 10.875 -10.765625 C 11.113281 -10.316406 11.234375 -9.804688 11.234375 -9.234375 C 11.234375 -8.671875 11.132812 -8.148438 10.9375 -7.671875 C 10.738281 -7.191406 10.410156 -6.769531 9.953125 -6.40625 C 9.492188 -6.050781 8.941406 -5.835938 8.296875 -5.765625 C 8.984375 -5.535156 9.59375 -5.007812 10.125 -4.1875 C 11.414062 -2.113281 12.375 -0.878906 13 -0.484375 C 13.3125 -0.296875 13.703125 -0.191406 14.171875 -0.171875 L 14.171875 0 L 12.40625 0 C 11.382812 0 10.53125 -0.140625 9.84375 -0.421875 C 9.164062 -0.703125 8.613281 -1.179688 8.1875 -1.859375 C 7.96875 -2.210938 7.691406 -2.738281 7.359375 -3.4375 C 7.023438 -4.132812 6.804688 -4.632812 6.703125 -4.9375 C 6.378906 -5.65625 5.96875 -6.054688 5.46875 -6.140625 L 5.46875 -6.3125 L 6.03125 -6.3125 C 6.570312 -6.3125 7.046875 -6.472656 7.453125 -6.796875 C 7.867188 -7.117188 8.148438 -7.648438 8.296875 -8.390625 C 8.335938 -8.640625 8.359375 -8.835938 8.359375 -8.984375 C 8.359375 -9.960938 8.160156 -10.671875 7.765625 -11.109375 C 7.378906 -11.546875 6.875 -11.769531 6.25 -11.78125 C 6.125 -11.78125 5.941406 -11.78125 5.703125 -11.78125 Z M 5.703125 -11.78125 "/></g></g></g><g fill="#13325b" fill-opacity="1"><g transform="translate(205.412101, 160.462317)"><g><path d="M 0.890625 -1.671875 C 0.890625 -2.535156 1.078125 -3.269531 1.453125 -3.875 L 1.609375 -3.875 C 1.597656 -3.78125 1.59375 -3.6875 1.59375 -3.59375 C 1.59375 -2.769531 1.890625 -2.046875 2.484375 -1.421875 C 3.078125 -0.804688 3.890625 -0.5 4.921875 -0.5 C 5.722656 -0.5 6.347656 -0.691406 6.796875 -1.078125 C 7.242188 -1.460938 7.46875 -1.945312 7.46875 -2.53125 C 7.46875 -3.238281 6.988281 -3.851562 6.03125 -4.375 L 2.90625 -6.4375 C 2.28125 -6.800781 1.832031 -7.238281 1.5625 -7.75 C 1.300781 -8.257812 1.171875 -8.773438 1.171875 -9.296875 C 1.171875 -10.421875 1.523438 -11.285156 2.234375 -11.890625 C 2.941406 -12.503906 3.851562 -12.8125 4.96875 -12.8125 C 5.625 -12.8125 6.441406 -12.753906 7.421875 -12.640625 L 8.546875 -12.640625 L 8.3125 -10 L 8.125 -10 C 8.125 -10.625 7.894531 -11.125 7.4375 -11.5 C 6.976562 -11.875 6.363281 -12.0625 5.59375 -12.0625 C 4.664062 -12.0625 3.992188 -11.773438 3.578125 -11.203125 C 3.359375 -10.929688 3.25 -10.617188 3.25 -10.265625 C 3.25 -9.691406 3.664062 -9.160156 4.5 -8.671875 L 7.9375 -6.4375 C 9.007812 -5.820312 9.546875 -4.910156 9.546875 -3.703125 C 9.546875 -2.421875 9.113281 -1.441406 8.25 -0.765625 C 7.382812 -0.0859375 6.234375 0.25 4.796875 0.25 C 3.984375 0.25 3.234375 0.148438 2.546875 -0.046875 C 1.859375 -0.242188 1.347656 -0.507812 1.015625 -0.84375 C 0.929688 -1.070312 0.890625 -1.347656 0.890625 -1.671875 Z M 0.890625 -1.671875 "/></g></g></g><g fill="#13325b" fill-opacity="1"><g transform="translate(216.68187, 160.462317)"><g><path d="M 0.984375 -0.171875 C 1.296875 -0.171875 1.5625 -0.28125 1.78125 -0.5 C 2.007812 -0.726562 2.128906 -1 2.140625 -1.3125 L 2.140625 -11.28125 C 2.128906 -11.582031 2.007812 -11.84375 1.78125 -12.0625 C 1.5625 -12.28125 1.296875 -12.390625 0.984375 -12.390625 L 0.75 -12.390625 L 0.75 -12.5625 L 6.21875 -12.5625 L 6.1875 -12.390625 L 5.984375 -12.390625 C 5.671875 -12.390625 5.398438 -12.28125 5.171875 -12.0625 C 4.941406 -11.84375 4.828125 -11.582031 4.828125 -11.28125 L 4.828125 -1.3125 C 4.828125 -1 4.941406 -0.726562 5.171875 -0.5 C 5.398438 -0.28125 5.671875 -0.171875 5.984375 -0.171875 L 6.1875 -0.171875 L 6.21875 0 L 0.75 0 L 0.75 -0.171875 Z M 0.984375 -0.171875 "/></g></g></g><g fill="#13325b" fill-opacity="1"><g transform="translate(224.506246, 160.462317)"><g><path d="M 7.34375 -11.828125 L 7.34375 -1.296875 C 7.351562 -0.984375 7.46875 -0.71875 7.6875 -0.5 C 7.914062 -0.28125 8.179688 -0.171875 8.484375 -0.171875 L 8.703125 -0.171875 L 8.71875 0 L 3.265625 0 L 3.265625 -0.171875 L 3.5 -0.171875 C 3.800781 -0.171875 4.0625 -0.28125 4.28125 -0.5 C 4.5 -0.71875 4.625 -0.976562 4.65625 -1.28125 L 4.65625 -11.828125 L 2.21875 -11.828125 C 1.675781 -11.816406 1.242188 -11.644531 0.921875 -11.3125 C 0.597656 -10.976562 0.4375 -10.539062 0.4375 -10 L 0.4375 -9.78125 L 0.25 -9.78125 L 0.25 -12.90625 C 0.414062 -12.832031 0.71875 -12.757812 1.15625 -12.6875 C 1.59375 -12.613281 2 -12.578125 2.375 -12.578125 L 9.609375 -12.578125 C 10.191406 -12.597656 10.664062 -12.648438 11.03125 -12.734375 C 11.40625 -12.816406 11.632812 -12.875 11.71875 -12.90625 L 11.71875 -9.78125 L 11.546875 -9.78125 L 11.546875 -10 C 11.546875 -10.539062 11.382812 -10.976562 11.0625 -11.3125 C 10.738281 -11.644531 10.300781 -11.816406 9.75 -11.828125 Z M 7.34375 -11.828125 "/></g></g></g><g fill="#13325b" fill-opacity="1"><g transform="translate(237.355164, 160.462317)"><g><path d="M 13.1875 -12.390625 L 12.9375 -12.390625 C 12.582031 -12.390625 12.242188 -12.285156 11.921875 -12.078125 C 11.597656 -11.878906 11.335938 -11.632812 11.140625 -11.34375 L 7.609375 -5.703125 L 7.609375 -1.3125 C 7.609375 -1 7.722656 -0.726562 7.953125 -0.5 C 8.179688 -0.28125 8.453125 -0.171875 8.765625 -0.171875 L 8.96875 -0.171875 L 9 0 L 3.53125 0 L 3.53125 -0.171875 L 3.765625 -0.171875 C 4.078125 -0.171875 4.34375 -0.28125 4.5625 -0.5 C 4.789062 -0.71875 4.910156 -0.984375 4.921875 -1.296875 L 4.921875 -5.734375 L 1.484375 -11.359375 C 1.304688 -11.648438 1.050781 -11.894531 0.71875 -12.09375 C 0.394531 -12.289062 0.0546875 -12.390625 -0.296875 -12.390625 L -0.546875 -12.390625 L -0.546875 -12.5625 L 5.40625 -12.5625 L 5.40625 -12.390625 L 5.171875 -12.390625 C 4.898438 -12.390625 4.695312 -12.269531 4.5625 -12.03125 C 4.488281 -11.894531 4.453125 -11.765625 4.453125 -11.640625 C 4.453125 -11.515625 4.484375 -11.394531 4.546875 -11.28125 L 7.109375 -6.609375 L 9.765625 -11.28125 C 9.835938 -11.394531 9.875 -11.515625 9.875 -11.640625 C 9.875 -11.765625 9.832031 -11.890625 9.75 -12.015625 C 9.601562 -12.265625 9.398438 -12.390625 9.140625 -12.390625 L 8.921875 -12.390625 L 8.921875 -12.5625 L 13.1875 -12.5625 Z M 13.1875 -12.390625 "/></g></g></g><g fill="#13325b" fill-opacity="1"><g transform="translate(176.121715, 267.927574)"><g><path d="M 0.859375 0 L 0.859375 -0.46875 L 1.578125 -0.46875 C 1.648438 -0.46875 1.710938 -0.472656 1.765625 -0.484375 C 1.816406 -0.503906 1.859375 -0.535156 1.890625 -0.578125 C 1.929688 -0.628906 1.957031 -0.691406 1.96875 -0.765625 C 1.988281 -0.835938 2 -0.925781 2 -1.03125 L 2 -5.421875 C 1.894531 -5.285156 1.789062 -5.160156 1.6875 -5.046875 C 1.59375 -4.941406 1.5 -4.847656 1.40625 -4.765625 C 1.3125 -4.679688 1.222656 -4.617188 1.140625 -4.578125 C 1.054688 -4.535156 0.96875 -4.515625 0.875 -4.515625 C 0.800781 -4.515625 0.734375 -4.53125 0.671875 -4.5625 C 0.617188 -4.59375 0.566406 -4.632812 0.515625 -4.6875 C 0.472656 -4.75 0.4375 -4.816406 0.40625 -4.890625 C 0.382812 -4.972656 0.375 -5.0625 0.375 -5.15625 C 0.457031 -5.1875 0.546875 -5.21875 0.640625 -5.25 C 0.742188 -5.28125 0.847656 -5.320312 0.953125 -5.375 C 1.066406 -5.425781 1.1875 -5.488281 1.3125 -5.5625 C 1.4375 -5.632812 1.570312 -5.726562 1.71875 -5.84375 L 2.328125 -6.296875 L 3.3125 -6.296875 L 3.3125 -1.03125 C 3.3125 -0.945312 3.316406 -0.867188 3.328125 -0.796875 C 3.335938 -0.722656 3.359375 -0.660156 3.390625 -0.609375 C 3.429688 -0.566406 3.476562 -0.53125 3.53125 -0.5 C 3.59375 -0.476562 3.671875 -0.46875 3.765625 -0.46875 L 4.46875 -0.46875 L 4.46875 0 Z M 0.859375 0 "/></g></g></g><g fill="#13325b" fill-opacity="1"><g transform="translate(182.069813, 267.927574)"><g><path d="M 1.984375 0.078125 C 1.722656 0.078125 1.5 0.0507812 1.3125 0 C 1.132812 -0.0507812 0.988281 -0.125 0.875 -0.21875 C 0.757812 -0.3125 0.675781 -0.414062 0.625 -0.53125 C 0.570312 -0.65625 0.546875 -0.78125 0.546875 -0.90625 C 0.546875 -1.03125 0.578125 -1.132812 0.640625 -1.21875 C 0.710938 -1.3125 0.828125 -1.375 0.984375 -1.40625 C 1.023438 -1.269531 1.070312 -1.144531 1.125 -1.03125 C 1.1875 -0.914062 1.257812 -0.816406 1.34375 -0.734375 C 1.4375 -0.648438 1.535156 -0.582031 1.640625 -0.53125 C 1.753906 -0.488281 1.882812 -0.46875 2.03125 -0.46875 C 2.425781 -0.46875 2.726562 -0.675781 2.9375 -1.09375 C 3.15625 -1.519531 3.273438 -2.15625 3.296875 -3 C 3.234375 -2.914062 3.160156 -2.835938 3.078125 -2.765625 C 2.992188 -2.691406 2.894531 -2.628906 2.78125 -2.578125 C 2.675781 -2.523438 2.5625 -2.484375 2.4375 -2.453125 C 2.3125 -2.421875 2.175781 -2.40625 2.03125 -2.40625 C 1.769531 -2.40625 1.535156 -2.441406 1.328125 -2.515625 C 1.117188 -2.597656 0.9375 -2.71875 0.78125 -2.875 C 0.632812 -3.03125 0.519531 -3.21875 0.4375 -3.4375 C 0.351562 -3.664062 0.3125 -3.925781 0.3125 -4.21875 C 0.3125 -4.539062 0.351562 -4.832031 0.4375 -5.09375 C 0.53125 -5.351562 0.660156 -5.578125 0.828125 -5.765625 C 1.003906 -5.953125 1.21875 -6.09375 1.46875 -6.1875 C 1.71875 -6.289062 2 -6.34375 2.3125 -6.34375 C 2.632812 -6.34375 2.925781 -6.285156 3.1875 -6.171875 C 3.457031 -6.054688 3.691406 -5.878906 3.890625 -5.640625 C 4.085938 -5.398438 4.238281 -5.09375 4.34375 -4.71875 C 4.445312 -4.351562 4.5 -3.914062 4.5 -3.40625 C 4.5 -2.914062 4.453125 -2.457031 4.359375 -2.03125 C 4.265625 -1.613281 4.117188 -1.25 3.921875 -0.9375 C 3.722656 -0.625 3.460938 -0.375 3.140625 -0.1875 C 2.828125 -0.0078125 2.441406 0.078125 1.984375 0.078125 Z M 2.40625 -3.046875 C 2.613281 -3.046875 2.789062 -3.097656 2.9375 -3.203125 C 3.09375 -3.304688 3.210938 -3.445312 3.296875 -3.625 C 3.296875 -4 3.269531 -4.320312 3.21875 -4.59375 C 3.175781 -4.863281 3.113281 -5.082031 3.03125 -5.25 C 2.957031 -5.425781 2.863281 -5.554688 2.75 -5.640625 C 2.632812 -5.722656 2.503906 -5.765625 2.359375 -5.765625 C 2.109375 -5.765625 1.914062 -5.640625 1.78125 -5.390625 C 1.644531 -5.140625 1.578125 -4.769531 1.578125 -4.28125 C 1.578125 -3.875 1.644531 -3.566406 1.78125 -3.359375 C 1.914062 -3.148438 2.125 -3.046875 2.40625 -3.046875 Z M 2.40625 -3.046875 "/></g></g></g><g fill="#13325b" fill-opacity="1"><g transform="translate(188.017911, 267.927574)"><g><path d="M 0.265625 -1.59375 C 0.265625 -1.78125 0.289062 -1.945312 0.34375 -2.09375 C 0.40625 -2.25 0.492188 -2.390625 0.609375 -2.515625 C 0.722656 -2.640625 0.859375 -2.753906 1.015625 -2.859375 C 1.179688 -2.960938 1.359375 -3.0625 1.546875 -3.15625 C 1.203125 -3.363281 0.9375 -3.59375 0.75 -3.84375 C 0.5625 -4.101562 0.46875 -4.40625 0.46875 -4.75 C 0.46875 -4.957031 0.5 -5.15625 0.5625 -5.34375 C 0.632812 -5.53125 0.75 -5.695312 0.90625 -5.84375 C 1.070312 -6 1.285156 -6.117188 1.546875 -6.203125 C 1.804688 -6.296875 2.125 -6.34375 2.5 -6.34375 C 2.8125 -6.34375 3.082031 -6.300781 3.3125 -6.21875 C 3.539062 -6.144531 3.734375 -6.039062 3.890625 -5.90625 C 4.046875 -5.769531 4.160156 -5.609375 4.234375 -5.421875 C 4.316406 -5.234375 4.359375 -5.03125 4.359375 -4.8125 C 4.359375 -4.632812 4.332031 -4.476562 4.28125 -4.34375 C 4.226562 -4.207031 4.148438 -4.082031 4.046875 -3.96875 C 3.941406 -3.863281 3.816406 -3.765625 3.671875 -3.671875 C 3.523438 -3.578125 3.363281 -3.484375 3.1875 -3.390625 C 3.445312 -3.265625 3.664062 -3.132812 3.84375 -3 C 4.03125 -2.875 4.179688 -2.738281 4.296875 -2.59375 C 4.421875 -2.457031 4.507812 -2.3125 4.5625 -2.15625 C 4.613281 -2 4.640625 -1.832031 4.640625 -1.65625 C 4.640625 -1.375 4.585938 -1.125 4.484375 -0.90625 C 4.378906 -0.695312 4.226562 -0.519531 4.03125 -0.375 C 3.84375 -0.226562 3.609375 -0.113281 3.328125 -0.03125 C 3.054688 0.0390625 2.742188 0.078125 2.390625 0.078125 C 2.023438 0.078125 1.707031 0.0351562 1.4375 -0.046875 C 1.175781 -0.140625 0.957031 -0.257812 0.78125 -0.40625 C 0.601562 -0.5625 0.472656 -0.738281 0.390625 -0.9375 C 0.304688 -1.144531 0.265625 -1.363281 0.265625 -1.59375 Z M 2.4375 -0.40625 C 2.582031 -0.40625 2.71875 -0.429688 2.84375 -0.484375 C 2.96875 -0.546875 3.070312 -0.625 3.15625 -0.71875 C 3.238281 -0.8125 3.300781 -0.925781 3.34375 -1.0625 C 3.394531 -1.195312 3.421875 -1.34375 3.421875 -1.5 C 3.421875 -1.644531 3.394531 -1.773438 3.34375 -1.890625 C 3.300781 -2.003906 3.226562 -2.113281 3.125 -2.21875 C 3.019531 -2.320312 2.882812 -2.421875 2.71875 -2.515625 C 2.5625 -2.609375 2.367188 -2.707031 2.140625 -2.8125 C 2.046875 -2.75 1.953125 -2.675781 1.859375 -2.59375 C 1.773438 -2.507812 1.703125 -2.414062 1.640625 -2.3125 C 1.578125 -2.21875 1.53125 -2.109375 1.5 -1.984375 C 1.46875 -1.859375 1.453125 -1.71875 1.453125 -1.5625 C 1.453125 -1.394531 1.472656 -1.238281 1.515625 -1.09375 C 1.566406 -0.945312 1.632812 -0.820312 1.71875 -0.71875 C 1.800781 -0.625 1.90625 -0.546875 2.03125 -0.484375 C 2.15625 -0.429688 2.289062 -0.40625 2.4375 -0.40625 Z M 3.265625 -4.828125 C 3.265625 -4.953125 3.242188 -5.070312 3.203125 -5.1875 C 3.171875 -5.3125 3.117188 -5.421875 3.046875 -5.515625 C 2.984375 -5.609375 2.898438 -5.6875 2.796875 -5.75 C 2.691406 -5.8125 2.570312 -5.84375 2.4375 -5.84375 C 2.320312 -5.84375 2.21875 -5.816406 2.125 -5.765625 C 2.03125 -5.710938 1.953125 -5.640625 1.890625 -5.546875 C 1.828125 -5.460938 1.78125 -5.359375 1.75 -5.234375 C 1.71875 -5.117188 1.703125 -4.992188 1.703125 -4.859375 C 1.703125 -4.703125 1.722656 -4.566406 1.765625 -4.453125 C 1.804688 -4.335938 1.863281 -4.234375 1.9375 -4.140625 C 2.019531 -4.054688 2.117188 -3.976562 2.234375 -3.90625 C 2.347656 -3.832031 2.484375 -3.757812 2.640625 -3.6875 C 2.753906 -3.75 2.847656 -3.816406 2.921875 -3.890625 C 2.992188 -3.960938 3.054688 -4.039062 3.109375 -4.125 C 3.160156 -4.21875 3.195312 -4.320312 3.21875 -4.4375 C 3.25 -4.550781 3.265625 -4.679688 3.265625 -4.828125 Z M 3.265625 -4.828125 "/></g></g></g><g fill="#13325b" fill-opacity="1"><g transform="translate(193.966009, 267.927574)"><g><path d="M 2.8125 -5.828125 C 2.644531 -5.828125 2.488281 -5.773438 2.34375 -5.671875 C 2.207031 -5.566406 2.085938 -5.414062 1.984375 -5.21875 C 1.890625 -5.03125 1.8125 -4.789062 1.75 -4.5 C 1.6875 -4.21875 1.644531 -3.890625 1.625 -3.515625 C 1.6875 -3.554688 1.753906 -3.59375 1.828125 -3.625 C 1.910156 -3.664062 2 -3.703125 2.09375 -3.734375 C 2.195312 -3.765625 2.3125 -3.789062 2.4375 -3.8125 C 2.5625 -3.832031 2.695312 -3.84375 2.84375 -3.84375 C 3.101562 -3.84375 3.34375 -3.800781 3.5625 -3.71875 C 3.78125 -3.632812 3.960938 -3.515625 4.109375 -3.359375 C 4.265625 -3.203125 4.382812 -3.007812 4.46875 -2.78125 C 4.550781 -2.5625 4.59375 -2.3125 4.59375 -2.03125 C 4.59375 -1.707031 4.546875 -1.414062 4.453125 -1.15625 C 4.367188 -0.90625 4.242188 -0.6875 4.078125 -0.5 C 3.910156 -0.3125 3.695312 -0.164062 3.4375 -0.0625 C 3.1875 0.03125 2.894531 0.078125 2.5625 0.078125 C 2.238281 0.078125 1.941406 0.0195312 1.671875 -0.09375 C 1.410156 -0.207031 1.179688 -0.382812 0.984375 -0.625 C 0.796875 -0.875 0.648438 -1.1875 0.546875 -1.5625 C 0.441406 -1.9375 0.390625 -2.378906 0.390625 -2.890625 C 0.390625 -3.367188 0.441406 -3.816406 0.546875 -4.234375 C 0.648438 -4.660156 0.800781 -5.03125 1 -5.34375 C 1.207031 -5.65625 1.46875 -5.898438 1.78125 -6.078125 C 2.101562 -6.253906 2.472656 -6.34375 2.890625 -6.34375 C 3.171875 -6.34375 3.410156 -6.316406 3.609375 -6.265625 C 3.804688 -6.210938 3.96875 -6.140625 4.09375 -6.046875 C 4.21875 -5.960938 4.304688 -5.859375 4.359375 -5.734375 C 4.410156 -5.617188 4.4375 -5.5 4.4375 -5.375 C 4.4375 -5.289062 4.414062 -5.207031 4.375 -5.125 C 4.34375 -5.039062 4.285156 -4.96875 4.203125 -4.90625 C 4.117188 -4.84375 4.007812 -4.789062 3.875 -4.75 C 3.75 -4.71875 3.585938 -4.703125 3.390625 -4.703125 C 3.390625 -4.828125 3.378906 -4.957031 3.359375 -5.09375 C 3.347656 -5.226562 3.320312 -5.347656 3.28125 -5.453125 C 3.238281 -5.566406 3.175781 -5.65625 3.09375 -5.71875 C 3.019531 -5.789062 2.925781 -5.828125 2.8125 -5.828125 Z M 2.515625 -3.296875 C 2.429688 -3.296875 2.34375 -3.285156 2.25 -3.265625 C 2.164062 -3.242188 2.082031 -3.210938 2 -3.171875 C 1.925781 -3.128906 1.851562 -3.082031 1.78125 -3.03125 C 1.71875 -2.988281 1.664062 -2.941406 1.625 -2.890625 C 1.632812 -2.460938 1.660156 -2.097656 1.703125 -1.796875 C 1.753906 -1.492188 1.820312 -1.242188 1.90625 -1.046875 C 2 -0.859375 2.101562 -0.71875 2.21875 -0.625 C 2.332031 -0.539062 2.457031 -0.5 2.59375 -0.5 C 2.820312 -0.5 3 -0.613281 3.125 -0.84375 C 3.257812 -1.070312 3.328125 -1.4375 3.328125 -1.9375 C 3.328125 -2.414062 3.253906 -2.757812 3.109375 -2.96875 C 2.960938 -3.1875 2.765625 -3.296875 2.515625 -3.296875 Z M 2.515625 -3.296875 "/></g></g></g><g clip-path="url(#62d47d548d)"><path fill="#9f7944" d="M 187.628906 101.960938 L 189.320312 105.347656 L 193.105469 105.890625 L 190.367188 108.527344 L 191.011719 112.246094 L 187.628906 110.488281 L 184.246094 112.246094 L 184.890625 108.527344 L 182.152344 105.890625 L 185.9375 105.347656 Z M 187.628906 101.960938 " fill-opacity="1" fill-rule="nonzero"/></g><g clip-path="url(#ffcaf37487)"><path fill="#9f7944" d="M 199.203125 106.457031 L 200.113281 109.238281 L 202.949219 110.074219 L 200.550781 111.789062 L 200.625 114.710938 L 198.230469 112.988281 L 195.4375 113.960938 L 196.359375 111.183594 L 194.558594 108.859375 L 197.519531 108.863281 Z M 199.203125 106.457031 " fill-opacity="1" fill-rule="nonzero"/></g><g clip-path="url(#9bbe2edfc9)"><path fill="#9f7944" d="M 176.054688 106.457031 L 175.144531 109.238281 L 172.308594 110.074219 L 174.707031 111.789062 L 174.632812 114.710938 L 177.027344 112.988281 L 179.820312 113.960938 L 178.902344 111.183594 L 180.699219 108.859375 L 177.738281 108.863281 Z M 176.054688 106.457031 " fill-opacity="1" fill-rule="nonzero"/></g></svg>